<svg id="Layer_1" data-name="Layer 1" xmlns="http://www.w3.org/2000/svg" viewBox="0 0 223.33 102.5"><defs><style>.cls-1{font-size:50.18px;fill:#231f20;font-family:Century Gothic;}.cls-2{fill:#ee3424;}.cls-3{fill:#fff;}.cls-4,.cls-5{fill:none;stroke-miterlimit:10;}.cls-4{stroke:#ee3725;stroke-width:3px;}.cls-5{stroke:#939598;stroke-width:0.25px;}.cls-6{fill:#939598;}</style></defs><title>eeZE1</title><text class="cls-1" transform="translate(38.38 74.12)">eeZ</text><path class="cls-2" d="M185.77,36.48a24.93,24.93,0,0,0-24.07-18.73,25.26,25.26,0,0,0-24.32,18.73h48.39Z" transform="translate(-4.17 -8.08)"/><path class="cls-2" d="M186.45,40.5H136.66c-0.08.8-.12,1.6-0.12,2.42V76.08a12,12,0,0,0,12,12h26a12,12,0,0,0,12-12V42.58C186.54,41.88,186.5,41.19,186.45,40.5Zm-23.73,40h-19V46.71H162v3.66h-13.9V61.07h13.15v3.61H148.06v12.2h14.65v3.66Zm15.16,1.66H174V56.34h-0.09l-5.15,2.78L168,56.06l6.47-3.46h3.42V82.2Z" transform="translate(-4.17 -8.08)"/><circle class="cls-3" cx="149.33" cy="21.25" r="3.33"/><circle class="cls-3" cx="165.42" cy="21.25" r="3.33"/><line class="cls-4" x1="170.08" y1="17.5" x2="177.74" y2="1.83"/><circle class="cls-2" cx="176.76" cy="3.33" r="3.33"/><line class="cls-4" x1="144.9" y1="17.5" x2="137.06" y2="1.83"/><ellipse class="cls-2" cx="138.07" cy="3.33" rx="3.41" ry="3.33"/><line class="cls-5" y1="87.92" x2="223.33" y2="87.92"/><path class="cls-6" d="M6.42,110.39a0.11,0.11,0,0,1,0,.06l-0.05,0-0.1,0H5.93l-0.1,0-0.05,0a0.11,0.11,0,0,1,0-.06v-6.74a0.11,0.11,0,0,1,0-.06l0.06,0,0.1,0H6.25l0.1,0,0.05,0a0.12,0.12,0,0,1,0,.06v6.74Z" transform="translate(-4.17 -8.08)"/><path class="cls-6" d="M15.64,110.18a0.38,0.38,0,0,1,0,.16,0.32,0.32,0,0,1-.08.11l-0.1.06-0.1,0H15.2a0.65,0.65,0,0,1-.2,0,0.5,0.5,0,0,1-.17-0.09,1,1,0,0,1-.17-0.18,3,3,0,0,1-.19-0.29L12,105.58l-0.37-.65-0.35-.65h0q0,0.39,0,.8v5.31a0.11,0.11,0,0,1,0,.06l-0.05,0-0.1,0H10.82l-0.1,0-0.05,0a0.11,0.11,0,0,1,0-.06v-6.51a0.31,0.31,0,0,1,.1-0.27,0.35,0.35,0,0,1,.2-0.07h0.27l0.21,0a0.43,0.43,0,0,1,.16.07,0.65,0.65,0,0,1,.14.15,2.49,2.49,0,0,1,.15.24l1.88,3.33,0.34,0.6,0.31,0.56,0.3,0.55L15,109.6h0q0-.45,0-0.94v-5a0.12,0.12,0,0,1,0-.06l0.05,0,0.1,0h0.31l0.1,0,0.06,0a0.1,0.1,0,0,1,0,.06v6.51Z" transform="translate(-4.17 -8.08)"/><path class="cls-6" d="M24.09,103.84a0.63,0.63,0,0,1,0,.12,0.25,0.25,0,0,1,0,.09l-0.05.05-0.07,0H21.85v6.26a0.11,0.11,0,0,1,0,.06l-0.05,0-0.1,0H21.37l-0.1,0-0.05,0a0.11,0.11,0,0,1,0-.06v-6.26H19.12l-0.07,0L19,104.05a0.27,0.27,0,0,1,0-.09,0.63,0.63,0,0,1,0-.12,0.71,0.71,0,0,1,0-.13,0.32,0.32,0,0,1,0-.09l0.05-.06,0.07,0h4.81l0.07,0a0.15,0.15,0,0,1,.05.06,0.29,0.29,0,0,1,0,.09A0.71,0.71,0,0,1,24.09,103.84Z" transform="translate(-4.17 -8.08)"/><path class="cls-6" d="M31.13,110.2a0.66,0.66,0,0,1,0,.12,0.27,0.27,0,0,1,0,.09l-0.06.06-0.07,0H27.7a0.35,0.35,0,0,1-.2-0.07,0.31,0.31,0,0,1-.1-0.27v-6.28a0.31,0.31,0,0,1,.1-0.27,0.35,0.35,0,0,1,.2-0.07h3.21l0.07,0a0.15,0.15,0,0,1,.05.06,0.29,0.29,0,0,1,0,.09,0.71,0.71,0,0,1,0,.13,0.63,0.63,0,0,1,0,.12,0.25,0.25,0,0,1,0,.09l-0.05.05-0.07,0H28.06v2.45h2.46l0.08,0,0.05,0.05a0.28,0.28,0,0,1,0,.09,0.75,0.75,0,0,1,0,.13,0.62,0.62,0,0,1,0,.12,0.24,0.24,0,0,1,0,.08l-0.05,0-0.08,0H28.06v2.77H31l0.07,0L31.09,110a0.24,0.24,0,0,1,0,.09A0.73,0.73,0,0,1,31.13,110.2Z" transform="translate(-4.17 -8.08)"/><path class="cls-6" d="M38.47,110.19a0.66,0.66,0,0,1,0,.13,0.34,0.34,0,0,1,0,.09,0.14,0.14,0,0,1-.05.06l-0.08,0h-3a0.35,0.35,0,0,1-.2-0.07,0.31,0.31,0,0,1-.1-0.27v-6.51a0.12,0.12,0,0,1,0-.06l0.05,0,0.1,0h0.31l0.1,0,0.05,0a0.12,0.12,0,0,1,0,.06v6.25H38.3l0.08,0L38.43,110a0.28,0.28,0,0,1,0,.09A0.69,0.69,0,0,1,38.47,110.19Z" transform="translate(-4.17 -8.08)"/><path class="cls-6" d="M45.29,110.19a0.66,0.66,0,0,1,0,.13,0.34,0.34,0,0,1,0,.09,0.14,0.14,0,0,1-.05.06l-0.08,0h-3a0.35,0.35,0,0,1-.2-0.07,0.31,0.31,0,0,1-.1-0.27v-6.51a0.12,0.12,0,0,1,0-.06l0.05,0,0.1,0h0.31l0.1,0,0.05,0a0.12,0.12,0,0,1,0,.06v6.25h2.66l0.08,0L45.25,110a0.28,0.28,0,0,1,0,.09A0.69,0.69,0,0,1,45.29,110.19Z" transform="translate(-4.17 -8.08)"/><path class="cls-6" d="M52.35,110.2a0.66,0.66,0,0,1,0,.12,0.27,0.27,0,0,1,0,.09l-0.06.06-0.07,0H48.92a0.35,0.35,0,0,1-.2-0.07,0.31,0.31,0,0,1-.1-0.27v-6.28a0.31,0.31,0,0,1,.1-0.27,0.35,0.35,0,0,1,.2-0.07h3.21l0.07,0a0.15,0.15,0,0,1,.05.06,0.29,0.29,0,0,1,0,.09,0.71,0.71,0,0,1,0,.13,0.63,0.63,0,0,1,0,.12,0.25,0.25,0,0,1,0,.09l-0.05.05-0.07,0H49.27v2.45h2.46l0.08,0,0.05,0.05a0.28,0.28,0,0,1,0,.09,0.75,0.75,0,0,1,0,.13,0.62,0.62,0,0,1,0,.12,0.24,0.24,0,0,1,0,.08l-0.05,0-0.08,0H49.27v2.77h2.9l0.07,0L52.3,110a0.24,0.24,0,0,1,0,.09A0.73,0.73,0,0,1,52.35,110.2Z" transform="translate(-4.17 -8.08)"/><path class="cls-6" d="M61.12,104.41a0.75,0.75,0,0,1,0,.13,0.41,0.41,0,0,1,0,.1,0.15,0.15,0,0,1,0,.06l-0.06,0a0.46,0.46,0,0,1-.21-0.11,3.08,3.08,0,0,0-.4-0.23,3.79,3.79,0,0,0-.6-0.23,2.89,2.89,0,0,0-.84-0.11,2.55,2.55,0,0,0-1.1.23,2.38,2.38,0,0,0-.82.63,2.76,2.76,0,0,0-.51.94,3.82,3.82,0,0,0-.17,1.17,3.68,3.68,0,0,0,.2,1.26,2.68,2.68,0,0,0,.55.93,2.34,2.34,0,0,0,.84.58A2.77,2.77,0,0,0,59,110a3.24,3.24,0,0,0,.75-0.09,2.76,2.76,0,0,0,.72-0.28v-2.25H58.67a0.14,0.14,0,0,1-.13-0.08,0.44,0.44,0,0,1,0-.21,0.71,0.71,0,0,1,0-.13,0.29,0.29,0,0,1,0-.09l0.05-.05,0.08,0H60.8l0.1,0,0.1,0.05a0.25,0.25,0,0,1,.07.1,0.45,0.45,0,0,1,0,.16v2.59a0.54,0.54,0,0,1,0,.22,0.41,0.41,0,0,1-.19.17,3.37,3.37,0,0,1-.39.18,4.08,4.08,0,0,1-.5.17,4.35,4.35,0,0,1-.52.1,3.84,3.84,0,0,1-.51,0,3.69,3.69,0,0,1-1.41-.26,2.89,2.89,0,0,1-1-.72,3.17,3.17,0,0,1-.65-1.11,4.25,4.25,0,0,1-.23-1.42,4.29,4.29,0,0,1,.24-1.48,3.31,3.31,0,0,1,.69-1.14,3.07,3.07,0,0,1,1.06-.73,3.68,3.68,0,0,1,2.08-.19,4.14,4.14,0,0,1,.6.17,2.6,2.6,0,0,1,.46.21,1.59,1.59,0,0,1,.26.18,0.38,0.38,0,0,1,.09.13A0.57,0.57,0,0,1,61.12,104.41Z" transform="translate(-4.17 -8.08)"/><path class="cls-6" d="M68.93,110.2a0.66,0.66,0,0,1,0,.12,0.27,0.27,0,0,1,0,.09l-0.06.06-0.07,0H65.5a0.35,0.35,0,0,1-.2-0.07,0.31,0.31,0,0,1-.1-0.27v-6.28a0.31,0.31,0,0,1,.1-0.27,0.35,0.35,0,0,1,.2-0.07h3.21l0.07,0a0.15,0.15,0,0,1,.05.06,0.29,0.29,0,0,1,0,.09,0.71,0.71,0,0,1,0,.13,0.63,0.63,0,0,1,0,.12,0.25,0.25,0,0,1,0,.09l-0.05.05-0.07,0H65.86v2.45h2.46l0.08,0,0.05,0.05a0.28,0.28,0,0,1,0,.09,0.75,0.75,0,0,1,0,.13,0.62,0.62,0,0,1,0,.12,0.24,0.24,0,0,1,0,.08l-0.05,0-0.08,0H65.86v2.77h2.9l0.07,0L68.89,110a0.24,0.24,0,0,1,0,.09A0.73,0.73,0,0,1,68.93,110.2Z" transform="translate(-4.17 -8.08)"/><path class="cls-6" d="M77.78,110.18a0.38,0.38,0,0,1,0,.16,0.32,0.32,0,0,1-.08.11l-0.1.06-0.1,0H77.33a0.65,0.65,0,0,1-.2,0,0.5,0.5,0,0,1-.17-0.09,1,1,0,0,1-.17-0.18,3,3,0,0,1-.19-0.29l-2.45-4.34-0.37-.65-0.35-.65h0q0,0.39,0,.8v5.31a0.11,0.11,0,0,1,0,.06l-0.05,0-0.1,0H73l-0.1,0-0.05,0a0.11,0.11,0,0,1,0-.06v-6.51a0.31,0.31,0,0,1,.1-0.27,0.35,0.35,0,0,1,.2-0.07h0.27l0.21,0a0.43,0.43,0,0,1,.16.07,0.65,0.65,0,0,1,.14.15A2.49,2.49,0,0,1,74,104l1.88,3.33,0.34,0.6,0.31,0.56,0.3,0.55,0.29,0.54h0q0-.45,0-0.94v-5a0.12,0.12,0,0,1,0-.06l0.05,0,0.1,0H77.6l0.1,0,0.06,0a0.1,0.1,0,0,1,0,.06v6.51Z" transform="translate(-4.17 -8.08)"/><path class="cls-6" d="M86.23,103.84a0.63,0.63,0,0,1,0,.12,0.25,0.25,0,0,1,0,.09l-0.05.05-0.07,0H84v6.26a0.11,0.11,0,0,1,0,.06l-0.05,0-0.1,0H83.5l-0.1,0-0.05,0a0.11,0.11,0,0,1,0-.06v-6.26H81.25l-0.07,0-0.05-.05a0.27,0.27,0,0,1,0-.09,0.63,0.63,0,0,1,0-.12,0.71,0.71,0,0,1,0-.13,0.32,0.32,0,0,1,0-.09l0.05-.06,0.07,0h4.81l0.07,0a0.15,0.15,0,0,1,.05.06,0.29,0.29,0,0,1,0,.09A0.71,0.71,0,0,1,86.23,103.84Z" transform="translate(-4.17 -8.08)"/><path class="cls-6" d="M95.65,108.84a3.51,3.51,0,0,1-.07.71,1.44,1.44,0,0,1-.23.55,1.1,1.1,0,0,1-.44.36,1.63,1.63,0,0,1-.68.13l-0.29,0-0.26-.07-0.21-.09-0.12-.08,0-.06,0-.06a0.37,0.37,0,0,1,0-.09s0-.08,0-0.13a0.7,0.7,0,0,1,0-.13,0.25,0.25,0,0,1,0-.08l0,0h0.06a0.23,0.23,0,0,1,.11,0l0.17,0.1,0.23,0.1a1,1,0,0,0,.31,0,1.07,1.07,0,0,0,.34,0,0.46,0.46,0,0,0,.23-0.19,1.07,1.07,0,0,0,.14-0.38,3.65,3.65,0,0,0,0-.64v-5.08a0.12,0.12,0,0,1,0-.06l0.05,0,0.1,0h0.31l0.1,0,0.05,0a0.12,0.12,0,0,1,0,.06v5.19Z" transform="translate(-4.17 -8.08)"/><path class="cls-6" d="M105,106.91a4.93,4.93,0,0,1-.22,1.54,2.92,2.92,0,0,1-.65,1.12,2.74,2.74,0,0,1-1.06.68,4.39,4.39,0,0,1-1.51.23h-1.37a0.35,0.35,0,0,1-.2-0.07,0.31,0.31,0,0,1-.1-0.27v-6.28a0.31,0.31,0,0,1,.1-0.27,0.35,0.35,0,0,1,.2-0.07h1.46a4.08,4.08,0,0,1,1.5.24,2.77,2.77,0,0,1,1,.69,2.92,2.92,0,0,1,.62,1.06A4.32,4.32,0,0,1,105,106.91Zm-0.7,0a4,4,0,0,0-.15-1.13,2.41,2.41,0,0,0-.47-0.9,2.18,2.18,0,0,0-.81-0.59,3.15,3.15,0,0,0-1.25-.21h-1.07v5.78h1.08a3.62,3.62,0,0,0,1.2-.17,2,2,0,0,0,.82-0.54,2.36,2.36,0,0,0,.49-0.92A4.72,4.72,0,0,0,104.28,106.95Z" transform="translate(-4.17 -8.08)"/><path class="cls-6" d="M112.48,110.2a0.58,0.58,0,0,1,0,.12,0.25,0.25,0,0,1,0,.09l-0.06.06-0.07,0h-3.26a0.35,0.35,0,0,1-.2-0.07,0.31,0.31,0,0,1-.1-0.27v-6.28a0.31,0.31,0,0,1,.1-0.27,0.35,0.35,0,0,1,.2-0.07h3.21l0.07,0a0.14,0.14,0,0,1,.05.06,0.29,0.29,0,0,1,0,.09,0.75,0.75,0,0,1,0,.13,0.67,0.67,0,0,1,0,.12,0.25,0.25,0,0,1,0,.09l-0.05.05-0.07,0h-2.85v2.45h2.46l0.08,0,0.05,0.05a0.28,0.28,0,0,1,0,.09,0.75,0.75,0,0,1,0,.13,0.62,0.62,0,0,1,0,.12,0.24,0.24,0,0,1,0,.08l-0.05,0-0.08,0h-2.46v2.77h2.9l0.07,0,0.06,0.05a0.23,0.23,0,0,1,0,.09A0.65,0.65,0,0,1,112.48,110.2Z" transform="translate(-4.17 -8.08)"/><path class="cls-6" d="M126,110.27a0.35,0.35,0,0,1,0,.13,0.1,0.1,0,0,1,0,.08,0.22,0.22,0,0,1-.11,0h-0.37l-0.11,0-0.06,0,0-.06-0.67-1.85h-3.05l-0.64,1.84a0.17,0.17,0,0,1,0,.06l-0.06,0-0.11,0h-0.36a0.23,0.23,0,0,1-.11,0,0.1,0.1,0,0,1,0-.08,0.32,0.32,0,0,1,0-.13l2.44-6.62a0.18,0.18,0,0,1,0-.07l0.08,0,0.12,0h0.33l0.12,0,0.08,0a0.2,0.2,0,0,1,0,.07Zm-2.89-6h0L121.76,108h2.66Z" transform="translate(-4.17 -8.08)"/><path class="cls-6" d="M133.44,105.53a2.33,2.33,0,0,1-.16.89,2,2,0,0,1-.47.69,2.12,2.12,0,0,1-.75.45,3.11,3.11,0,0,1-1.06.16h-0.9v2.66a0.11,0.11,0,0,1,0,.06l-0.05,0-0.1,0H129.6l-0.1,0-0.05,0a0.11,0.11,0,0,1,0-.06v-6.51a0.31,0.31,0,0,1,.1-0.27,0.35,0.35,0,0,1,.2-0.07h1.41l0.41,0a3.49,3.49,0,0,1,.46.08,1.85,1.85,0,0,1,.54.23,1.78,1.78,0,0,1,.47.41,1.81,1.81,0,0,1,.3.56A2.16,2.16,0,0,1,133.44,105.53Zm-0.69.06a1.54,1.54,0,0,0-.18-0.77,1.24,1.24,0,0,0-.43-0.47,1.45,1.45,0,0,0-.53-0.19,3.72,3.72,0,0,0-.52,0h-1v3H131a2.18,2.18,0,0,0,.76-0.12,1.48,1.48,0,0,0,.52-0.32,1.37,1.37,0,0,0,.32-0.49A1.74,1.74,0,0,0,132.74,105.59Z" transform="translate(-4.17 -8.08)"/><path class="cls-6" d="M141.23,105.53a2.33,2.33,0,0,1-.16.89,2,2,0,0,1-.47.69,2.12,2.12,0,0,1-.75.45,3.11,3.11,0,0,1-1.06.16h-0.9v2.66a0.11,0.11,0,0,1,0,.06l-0.05,0-0.1,0H137.4l-0.1,0-0.05,0a0.11,0.11,0,0,1,0-.06v-6.51a0.31,0.31,0,0,1,.1-0.27,0.35,0.35,0,0,1,.2-0.07h1.41l0.41,0a3.49,3.49,0,0,1,.46.08,1.85,1.85,0,0,1,.54.23,1.78,1.78,0,0,1,.47.41,1.81,1.81,0,0,1,.3.56A2.16,2.16,0,0,1,141.23,105.53Zm-0.69.06a1.54,1.54,0,0,0-.18-0.77,1.24,1.24,0,0,0-.43-0.47,1.45,1.45,0,0,0-.53-0.19,3.72,3.72,0,0,0-.52,0h-1v3h0.95a2.18,2.18,0,0,0,.76-0.12,1.48,1.48,0,0,0,.52-0.32,1.37,1.37,0,0,0,.32-0.49A1.74,1.74,0,0,0,140.54,105.59Z" transform="translate(-4.17 -8.08)"/><path class="cls-6" d="M149.36,108.55a2.17,2.17,0,0,1-.07.57,1.84,1.84,0,0,1-.21.48,1.68,1.68,0,0,1-.33.38,2,2,0,0,1-.44.28,2.39,2.39,0,0,1-.53.17,3.24,3.24,0,0,1-.66.06h-1.8a0.35,0.35,0,0,1-.2-0.07,0.31,0.31,0,0,1-.1-0.27v-6.28a0.31,0.31,0,0,1,.1-0.27,0.35,0.35,0,0,1,.2-0.07h1.49a3.24,3.24,0,0,1,1,.12,1.66,1.66,0,0,1,.62.35,1.43,1.43,0,0,1,.37.55,2.07,2.07,0,0,1,.12.72,2,2,0,0,1-.06.47,1.61,1.61,0,0,1-.17.42,1.48,1.48,0,0,1-.28.35,1.57,1.57,0,0,1-.4.26,1.6,1.6,0,0,1,.53.2,1.68,1.68,0,0,1,.43.37,1.78,1.78,0,0,1,.29.52A1.93,1.93,0,0,1,149.36,108.55Zm-1.15-3.21a1.56,1.56,0,0,0-.08-0.5,1,1,0,0,0-.24-0.38,1.1,1.1,0,0,0-.43-0.24,2.33,2.33,0,0,0-.7-0.09h-1.09v2.49h1.19a1.63,1.63,0,0,0,.63-0.1,1.11,1.11,0,0,0,.4-0.28,1.17,1.17,0,0,0,.23-0.41A1.59,1.59,0,0,0,148.21,105.33Zm0.45,3.27a1.55,1.55,0,0,0-.11-0.61,1.13,1.13,0,0,0-.32-0.44,1.43,1.43,0,0,0-.52-0.27,2.77,2.77,0,0,0-.77-0.09h-1.25v2.71h1.52a1.89,1.89,0,0,0,.59-0.08,1.36,1.36,0,0,0,.45-0.25,1.18,1.18,0,0,0,.31-0.41A1.31,1.31,0,0,0,148.66,108.6Z" transform="translate(-4.17 -8.08)"/><path class="cls-6" d="M158.09,107.94a3.29,3.29,0,0,1-.18,1.13,2.28,2.28,0,0,1-.51.83,2.18,2.18,0,0,1-.81.51,3,3,0,0,1-1.06.17,2.8,2.8,0,0,1-1-.17,2.13,2.13,0,0,1-.77-0.49,2.23,2.23,0,0,1-.51-0.81,3.16,3.16,0,0,1-.18-1.11v-4.37a0.12,0.12,0,0,1,0-.06l0.06,0,0.1,0h0.31l0.1,0,0.05,0a0.12,0.12,0,0,1,0,.06v4.26a3,3,0,0,0,.13.91,1.74,1.74,0,0,0,.37.65,1.52,1.52,0,0,0,.58.39,2.13,2.13,0,0,0,.77.13,2.23,2.23,0,0,0,.78-0.13,1.46,1.46,0,0,0,.58-0.38,1.74,1.74,0,0,0,.36-0.64,2.86,2.86,0,0,0,.13-0.9v-4.29a0.12,0.12,0,0,1,0-.06l0.05,0,0.1,0h0.31l0.1,0,0.05,0a0.12,0.12,0,0,1,0,.06v4.29Z" transform="translate(-4.17 -8.08)"/><path class="cls-6" d="M163,110.39a0.11,0.11,0,0,1,0,.06l-0.05,0-0.1,0h-0.31l-0.1,0-0.05,0a0.11,0.11,0,0,1,0-.06v-6.74a0.1,0.1,0,0,1,0-.06l0.06,0,0.1,0h0.31l0.1,0,0.05,0a0.12,0.12,0,0,1,0,.06v6.74Z" transform="translate(-4.17 -8.08)"/><path class="cls-6" d="M170.69,110.19a0.7,0.7,0,0,1,0,.13,0.31,0.31,0,0,1,0,.09,0.15,0.15,0,0,1-.05.06l-0.08,0h-3a0.35,0.35,0,0,1-.2-0.07,0.31,0.31,0,0,1-.1-0.27v-6.51a0.12,0.12,0,0,1,0-.06l0.05,0,0.1,0h0.31l0.1,0,0.05,0a0.12,0.12,0,0,1,0,.06v6.25h2.66l0.08,0,0.05,0.05a0.26,0.26,0,0,1,0,.09A0.73,0.73,0,0,1,170.69,110.19Z" transform="translate(-4.17 -8.08)"/><path class="cls-6" d="M179.13,106.91a5,5,0,0,1-.22,1.54,2.94,2.94,0,0,1-.65,1.12,2.74,2.74,0,0,1-1.06.68,4.4,4.4,0,0,1-1.51.23h-1.37a0.35,0.35,0,0,1-.2-0.07,0.31,0.31,0,0,1-.1-0.27v-6.28a0.31,0.31,0,0,1,.1-0.27,0.35,0.35,0,0,1,.2-0.07h1.46a4.08,4.08,0,0,1,1.5.24,2.77,2.77,0,0,1,1,.69,2.91,2.91,0,0,1,.62,1.06A4.32,4.32,0,0,1,179.13,106.91Zm-0.71,0a3.94,3.94,0,0,0-.15-1.13,2.41,2.41,0,0,0-.47-0.9,2.19,2.19,0,0,0-.81-0.59,3.15,3.15,0,0,0-1.25-.21h-1.07v5.78h1.08a3.62,3.62,0,0,0,1.2-.17,2,2,0,0,0,.82-0.54,2.35,2.35,0,0,0,.49-0.92A4.72,4.72,0,0,0,178.43,106.95Z" transform="translate(-4.17 -8.08)"/><path class="cls-6" d="M186.63,110.2a0.66,0.66,0,0,1,0,.12,0.29,0.29,0,0,1,0,.09l-0.06.06-0.07,0H183.2a0.35,0.35,0,0,1-.2-0.07,0.31,0.31,0,0,1-.1-0.27v-6.28a0.31,0.31,0,0,1,.1-0.27,0.35,0.35,0,0,1,.2-0.07h3.21l0.07,0,0.05,0.06a0.35,0.35,0,0,1,0,.09,0.75,0.75,0,0,1,0,.13,0.67,0.67,0,0,1,0,.12,0.3,0.3,0,0,1,0,.09l-0.05.05-0.07,0h-2.85v2.45H186l0.08,0,0.05,0.05a0.26,0.26,0,0,1,0,.09,0.67,0.67,0,0,1,0,.13,0.55,0.55,0,0,1,0,.12,0.22,0.22,0,0,1,0,.08l-0.05,0-0.08,0h-2.46v2.77h2.9l0.07,0,0.06,0.05a0.26,0.26,0,0,1,0,.09A0.73,0.73,0,0,1,186.63,110.2Z" transform="translate(-4.17 -8.08)"/><path class="cls-6" d="M194.84,110.38a0.14,0.14,0,0,1,0,.06l-0.05,0-0.1,0h-0.32l-0.11,0a0.21,0.21,0,0,1-.07-0.06,0.44,0.44,0,0,1,0-.11l-0.65-1.69c-0.08-.19-0.16-0.37-0.24-0.54a1.74,1.74,0,0,0-.31-0.44,1.32,1.32,0,0,0-.44-0.29,1.6,1.6,0,0,0-.62-0.11h-0.72v3.13a0.11,0.11,0,0,1,0,.06l-0.05,0-0.1,0h-0.31l-0.1,0-0.05,0a0.11,0.11,0,0,1,0-.06v-6.51a0.31,0.31,0,0,1,.1-0.27,0.35,0.35,0,0,1,.2-0.07h1.73l0.31,0a2.38,2.38,0,0,1,.69.23,1.66,1.66,0,0,1,.49.38,1.52,1.52,0,0,1,.29.52,2,2,0,0,1,.09.62,1.83,1.83,0,0,1-.1.62,1.51,1.51,0,0,1-.27.48,1.8,1.8,0,0,1-.42.36,2.8,2.8,0,0,1-.54.25,1.4,1.4,0,0,1,.32.2,1.58,1.58,0,0,1,.26.29,2.62,2.62,0,0,1,.23.38c0.07,0.15.14,0.31,0.21,0.49l0.65,1.62c0,0.13.08,0.21,0.09,0.26A0.44,0.44,0,0,1,194.84,110.38Zm-1.16-5a1.37,1.37,0,0,0-.2-0.76,1.12,1.12,0,0,0-.67-0.44l-0.34-.06-0.48,0h-0.86v2.55h1a2.14,2.14,0,0,0,.69-0.1,1.39,1.39,0,0,0,.48-0.27,1,1,0,0,0,.28-0.4A1.38,1.38,0,0,0,193.68,105.4Z" transform="translate(-4.17 -8.08)"/><path class="cls-6" d="M207.58,108.55a2.17,2.17,0,0,1-.07.57,1.84,1.84,0,0,1-.21.48,1.68,1.68,0,0,1-.33.38,2,2,0,0,1-.44.28,2.39,2.39,0,0,1-.53.17,3.24,3.24,0,0,1-.66.06h-1.8a0.35,0.35,0,0,1-.2-0.07,0.31,0.31,0,0,1-.1-0.27v-6.28a0.31,0.31,0,0,1,.1-0.27,0.35,0.35,0,0,1,.2-0.07H205a3.24,3.24,0,0,1,1,.12,1.66,1.66,0,0,1,.62.35,1.43,1.43,0,0,1,.37.55,2.07,2.07,0,0,1,.12.72,2,2,0,0,1-.06.47,1.61,1.61,0,0,1-.17.42,1.48,1.48,0,0,1-.28.35,1.57,1.57,0,0,1-.4.26,1.6,1.6,0,0,1,.53.2,1.68,1.68,0,0,1,.43.37,1.78,1.78,0,0,1,.29.52A1.93,1.93,0,0,1,207.58,108.55Zm-1.15-3.21a1.56,1.56,0,0,0-.08-0.5,1,1,0,0,0-.24-0.38,1.1,1.1,0,0,0-.43-0.24,2.33,2.33,0,0,0-.7-0.09h-1.09v2.49h1.19a1.63,1.63,0,0,0,.63-0.1,1.11,1.11,0,0,0,.4-0.28,1.17,1.17,0,0,0,.23-0.41A1.59,1.59,0,0,0,206.43,105.33Zm0.45,3.27a1.55,1.55,0,0,0-.11-0.61,1.13,1.13,0,0,0-.32-0.44,1.43,1.43,0,0,0-.52-0.27,2.77,2.77,0,0,0-.77-0.09h-1.25v2.71h1.52a1.89,1.89,0,0,0,.59-0.08,1.36,1.36,0,0,0,.45-0.25,1.18,1.18,0,0,0,.31-0.41A1.31,1.31,0,0,0,206.88,108.6Z" transform="translate(-4.17 -8.08)"/><path class="cls-6" d="M216.93,106.94a5.55,5.55,0,0,1-.19,1.51,3.21,3.21,0,0,1-.57,1.15,2.52,2.52,0,0,1-1,.73,3.7,3.7,0,0,1-2.69,0,2.33,2.33,0,0,1-.91-0.7,3,3,0,0,1-.53-1.11,5.91,5.91,0,0,1-.17-1.48,5.47,5.47,0,0,1,.19-1.48,3.12,3.12,0,0,1,.57-1.14,2.59,2.59,0,0,1,1-.73,3.31,3.31,0,0,1,1.36-.26,3.26,3.26,0,0,1,1.31.24,2.38,2.38,0,0,1,.92.69,3,3,0,0,1,.54,1.1A5.59,5.59,0,0,1,216.93,106.94Zm-0.7.06a5.53,5.53,0,0,0-.12-1.16,2.69,2.69,0,0,0-.38-0.94,1.86,1.86,0,0,0-.71-0.63,2.35,2.35,0,0,0-1.09-.23,2.26,2.26,0,0,0-1.09.24,2,2,0,0,0-.72.64,2.7,2.7,0,0,0-.4.94,5.13,5.13,0,0,0-.12,1.13,6,6,0,0,0,.11,1.18,2.68,2.68,0,0,0,.37.95,1.82,1.82,0,0,0,.7.63,2.38,2.38,0,0,0,1.1.23,2.27,2.27,0,0,0,1.1-.24,2,2,0,0,0,.72-0.66,2.76,2.76,0,0,0,.39-1A5.29,5.29,0,0,0,216.23,107Z" transform="translate(-4.17 -8.08)"/><path class="cls-6" d="M224.63,103.84a0.59,0.59,0,0,1,0,.12,0.25,0.25,0,0,1,0,.09l-0.05.05-0.07,0h-2.08v6.26a0.11,0.11,0,0,1,0,.06l-0.05,0-0.1,0H221.9l-0.1,0-0.05,0a0.11,0.11,0,0,1,0-.06v-6.26h-2.08l-0.07,0-0.05-.05a0.25,0.25,0,0,1,0-.09,0.59,0.59,0,0,1,0-.12,0.67,0.67,0,0,1,0-.13,0.29,0.29,0,0,1,0-.09,0.15,0.15,0,0,1,.05-0.06l0.07,0h4.81l0.07,0,0.05,0.06a0.29,0.29,0,0,1,0,.09A0.67,0.67,0,0,1,224.63,103.84Z" transform="translate(-4.17 -8.08)"/></svg>