<svg xmlns="http://www.w3.org/2000/svg" xmlns:xlink="http://www.w3.org/1999/xlink" viewBox="0 0 362.871 133.295">
  <defs>
    <style>
      .cls-1, .cls-6 {
        fill: none;
      }

      .cls-2 {
        fill: #ccc;
      }

      .cls-3 {
        fill: #f7f7f7;
      }

      .cls-13, .cls-4 {
        fill: #1e4a6d;
      }

      .cls-16, .cls-5, .cls-9 {
        fill: #fff;
      }

      .cls-6 {
        stroke: #1e4a6d;
        stroke-miterlimit: 10;
        stroke-width: 3px;
      }

      .cls-10, .cls-7, .cls-8 {
        fill: #727272;
      }

      .cls-9 {
        stroke: #727272;
        stroke-width: 2px;
      }

      .cls-10 {
        font-size: 9px;
        font-family: Calibri-Bold, Calibri;
        font-weight: 700;
      }

      .cls-11 {
        clip-path: url(#clip-path);
      }

      .cls-12 {
        clip-path: url(#clip-path-2);
      }

      .cls-14 {
        clip-path: url(#clip-path-3);
      }

      .cls-15, .cls-16 {
        stroke: none;
      }
    </style>
    <clipPath id="clip-path">
      <rect class="cls-1" width="73" height="3"/>
    </clipPath>
    <clipPath id="clip-path-2">
      <rect class="cls-1" width="43.666" height="40.223"/>
    </clipPath>
    <clipPath id="clip-path-3">
      <rect class="cls-1" width="36" height="3"/>
    </clipPath>
  </defs>
  <g id="Group_66" data-name="Group 66" transform="translate(-513.356 -462.395)">
    <g id="Group_17" data-name="Group 17" transform="translate(593.478 492.142)">
      <g id="Group_7" data-name="Group 7" transform="translate(63.935 1.85)">
        <g id="Group_4" data-name="Group 4" transform="translate(33.516 56.827) rotate(180)">
          <path id="Path_106" data-name="Path 106" class="cls-2" d="M0,0H13.241S33.516,1.379,33.516,21.655,13.241,43.586,13.241,43.586H0V32.413H13.241s9.932-.551,9.655-10.758A10.473,10.473,0,0,0,13.241,10.9H0Z" transform="translate(0 0)"/>
        </g>
        <g id="Group_5" data-name="Group 5" transform="translate(26.483 0)">
          <rect id="Rectangle_197" data-name="Rectangle 197" class="cls-3" width="11.146" height="27.866" rx="5" transform="translate(19.704) rotate(45)"/>
          <rect id="Rectangle_198" data-name="Rectangle 198" class="cls-3" width="11.146" height="27.866" rx="5" transform="translate(27.586 31.29) rotate(135)"/>
          <path id="Path_106-2" data-name="Path 106" class="cls-3" d="M707,529.917h13.241s20.275,1.379,20.275,21.655S720.242,573.5,720.242,573.5h-6.621V562.329h6.621s9.932-.551,9.655-10.758a10.473,10.473,0,0,0-9.655-10.758H707Z" transform="translate(-691.393 -516.591)"/>
        </g>
        <g id="Group_3" data-name="Group 3" transform="translate(31.448 0)">
          <path id="Path_106-3" data-name="Path 106" class="cls-4" d="M707,529.917h13.241s20.275,1.379,20.275,21.655S720.242,573.5,720.242,573.5H707V562.329h13.241s9.932-.551,9.655-10.758a10.473,10.473,0,0,0-9.655-10.758H707Z" transform="translate(-691.393 -516.591)"/>
          <rect id="Rectangle_197-2" data-name="Rectangle 197" class="cls-4" width="11.146" height="27.866" rx="5" transform="translate(19.704 0) rotate(45)"/>
          <rect id="Rectangle_198-2" data-name="Rectangle 198" class="cls-4" width="11.146" height="27.866" rx="5" transform="translate(27.586 31.29) rotate(135)"/>
        </g>
        <g id="Group_6" data-name="Group 6" transform="translate(26.504 30.981)">
          <rect id="Rectangle_199" data-name="Rectangle 199" class="cls-3" width="11.146" height="27.866" rx="5" transform="translate(7.882 39.172) rotate(-135)"/>
          <rect id="Rectangle_200" data-name="Rectangle 200" class="cls-3" width="11.146" height="27.866" rx="5" transform="translate(0 7.882) rotate(-45)"/>
        </g>
        <rect id="Rectangle_201" data-name="Rectangle 201" class="cls-2" width="11.146" height="27.866" rx="5" transform="translate(29.42 70.153) rotate(-135)"/>
        <rect id="Rectangle_202" data-name="Rectangle 202" class="cls-2" width="11.146" height="27.866" rx="5" transform="translate(21.538 38.863) rotate(-45)"/>
      </g>
      <g id="Group_8" data-name="Group 8" transform="translate(0 0)">
        <path id="Path_108" data-name="Path 108" class="cls-4" d="M180.287,34.358A22.105,22.105,0,0,0,158.944,17.75,22.4,22.4,0,0,0,137.38,34.358Z" transform="translate(-136.635 -9.176)"/>
        <path id="Path_109" data-name="Path 109" class="cls-4" d="M180.795,40.5H136.646a21.458,21.458,0,0,0-.106,2.146v29.4a10.64,10.64,0,0,0,10.64,10.64h23.054a10.64,10.64,0,0,0,10.64-10.64v-29.7C180.875,41.724,180.839,41.112,180.795,40.5ZM159.754,75.968H142.906V46.006h16.209v3.245H146.79v9.488h11.66v3.2h-11.7V72.758h12.99V76ZM173.2,77.44h-3.44V54.545h-.08l-4.566,2.465-.674-2.713,5.737-3.068H173.2V77.475Z" transform="translate(-136.54 -11.753)"/>
        <ellipse id="Ellipse_11" data-name="Ellipse 11" class="cls-5" cx="2.953" cy="2.953" rx="2.953" ry="2.953" transform="translate(12.086 15.89)"/>
        <ellipse id="Ellipse_12" data-name="Ellipse 12" class="cls-5" cx="2.953" cy="2.953" rx="2.953" ry="2.953" transform="translate(26.352 15.89)"/>
        <line id="Line_8" data-name="Line 8" class="cls-6" y1="13.894" x2="6.792" transform="translate(33.437 1.623)"/>
        <ellipse id="Ellipse_13" data-name="Ellipse 13" class="cls-4" cx="2.953" cy="2.953" rx="2.953" ry="2.953" transform="translate(36.407)"/>
        <line id="Line_9" data-name="Line 9" class="cls-6" x1="6.952" y1="13.894" transform="translate(4.159 1.623)"/>
        <ellipse id="Ellipse_14" data-name="Ellipse 14" class="cls-4" cx="3.024" cy="2.953" rx="3.024" ry="2.953" transform="translate(2.031)"/>
      </g>
    </g>
    <g id="Group_16" data-name="Group 16" transform="translate(506.376 462.395)">
      <g id="Group_11" data-name="Group 11" transform="translate(12.616)">
        <g id="Group_14" data-name="Group 14">
          <g id="Group_10" data-name="Group 10">
            <ellipse id="Ellipse_22" data-name="Ellipse 22" class="cls-5" cx="20.902" cy="7.963" rx="20.902" ry="7.963" transform="translate(0 41.804)"/>
            <rect id="Rectangle_206" data-name="Rectangle 206" class="cls-7" width="41.804" height="39.813" transform="translate(0 7.963)"/>
            <ellipse id="Ellipse_21" data-name="Ellipse 21" class="cls-7" cx="20.902" cy="7.963" rx="20.902" ry="7.963" transform="translate(0 39.813)"/>
            <ellipse id="Ellipse_20" data-name="Ellipse 20" class="cls-5" cx="20.902" cy="8.958" rx="20.902" ry="8.958" transform="translate(0 25.878)"/>
            <ellipse id="Ellipse_19" data-name="Ellipse 19" class="cls-7" cx="20.902" cy="7.963" rx="20.902" ry="7.963" transform="translate(0 25.878)"/>
            <ellipse id="Ellipse_17" data-name="Ellipse 17" class="cls-5" cx="20.902" cy="8.958" rx="20.902" ry="8.958" transform="translate(0 11.944)"/>
            <ellipse id="Ellipse_18" data-name="Ellipse 18" class="cls-7" cx="20.902" cy="7.963" rx="20.902" ry="7.963" transform="translate(0 11.944)"/>
            <ellipse id="Ellipse_16" data-name="Ellipse 16" class="cls-5" cx="20.902" cy="8.958" rx="20.902" ry="8.958"/>
            <ellipse id="Ellipse_15" data-name="Ellipse 15" class="cls-7" cx="20.902" cy="7.963" rx="20.902" ry="7.963"/>
          </g>
          <g id="Search" transform="translate(125.691 -7831.518)">
            <rect id="Rectangle_176" data-name="Rectangle 176" class="cls-1" width="16" height="16" transform="translate(-96 7835)"/>
            <g id="Path_99" data-name="Path 99" class="cls-8" transform="translate(-96 7835)">
              <path class="cls-15" d="M 14.5 17.31421089172363 L 13.79288959503174 16.60711097717285 L 11.07400989532471 13.88823127746582 C 9.840466499328613 14.62655830383301 8.473874092102051 15 7 15 C 4.8466796875 15 2.83316969871521 14.1723804473877 1.330389857292175 12.66961002349854 C -0.172380194067955 11.16683006286621 -1.000000238418579 9.1533203125 -1.000000238418579 7.000000476837158 C -1.000000238418579 4.846680164337158 -0.172380194067955 2.833170175552368 1.330389857292175 1.330390334129333 C 2.83316969871521 -0.1723797172307968 4.8466796875 -0.9999997019767761 7 -0.9999997019767761 C 9.153319358825684 -0.9999997019767761 11.16683006286621 -0.1723797172307968 12.66961002349854 1.330390334129333 C 14.17237949371338 2.833170175552368 15 4.846680164337158 15 7.000000476837158 C 15 8.473875045776367 14.62655830383301 9.84046745300293 13.8882303237915 11.07401084899902 L 16.60710906982422 13.79289054870605 L 17.314208984375 14.5 L 16.60710906982422 15.20711040496826 L 15.20710945129395 16.60711097717285 L 14.5 17.31421089172363 Z M 7 3.000000238418579 C 4.757009983062744 3.000000238418579 2.999999761581421 4.757010459899902 2.999999761581421 7.000000476837158 C 2.999999761581421 9.242990493774414 4.757009983062744 11 7 11 C 9.242989540100098 11 11 9.242990493774414 11 7.000000476837158 C 11 4.757010459899902 9.242989540100098 3.000000238418579 7 3.000000238418579 Z"/>
              <path class="cls-16" d="M 14.5 15.90000057220459 L 15.89999961853027 14.5 L 12.59999942779541 11.20000076293945 C 13.5 10 14 8.600000381469727 14 7.000000476837158 C 14 3.100000381469727 10.89999961853027 2.861023062905588e-07 7 2.861023062905588e-07 C 3.099999904632568 2.861023062905588e-07 -1.907348661234209e-07 3.100000381469727 -1.907348661234209e-07 7.000000476837158 C -1.907348661234209e-07 10.90000057220459 3.099999904632568 14 7 14 C 8.59999942779541 14 10 13.5 11.19999980926514 12.60000038146973 L 14.5 15.90000057220459 M 7 2.000000238418579 C 9.800000190734863 2.000000238418579 12 4.200000286102295 12 7.000000476837158 C 12 9.800000190734863 9.800000190734863 12 7 12 C 4.199999809265137 12 1.999999761581421 9.800000190734863 1.999999761581421 7.000000476837158 C 1.999999761581421 4.200000286102295 4.199999809265137 2.000000238418579 7 2.000000238418579 M 14.5 18.72842979431152 L 13.08578968048096 17.31421089172363 L 10.89378929138184 15.1222095489502 C 9.691821098327637 15.70547580718994 8.38813304901123 16 7 16 C 4.579569816589355 16 2.314939737319946 15.06836986541748 0.6232898235321045 13.37670993804932 C -1.068370223045349 11.68506050109863 -2.000000238418579 9.420430183410645 -2.000000238418579 7.000000476837158 C -2.000000238418579 4.579570293426514 -1.068370223045349 2.314940214157104 0.6232898235321045 0.6232903003692627 C 2.314939737319946 -1.068369746208191 4.579569816589355 -1.999999761581421 7 -1.999999761581421 C 9.420430183410645 -1.999999761581421 11.68505954742432 -1.068369746208191 13.37670993804932 0.6232903003692627 C 15.06836986541748 2.314940214157104 16 4.579570293426514 16 7.000000476837158 C 16 8.388134002685547 15.70547580718994 9.691822052001953 15.12220859527588 10.89378929138184 L 17.314208984375 13.08579063415527 L 18.72842979431152 14.5 L 17.314208984375 15.91421031951904 L 15.91420936584473 17.31421089172363 L 14.5 18.72842979431152 Z M 7 4.000000476837158 C 6.180009841918945 4.000000476837158 5.421509742736816 4.306920051574707 4.864209651947021 4.86421012878418 C 4.306919574737549 5.421510219573975 3.999999761581421 6.180010318756104 3.999999761581421 7.000000476837158 C 3.999999761581421 7.819990158081055 4.306919574737549 8.578490257263184 4.864209651947021 9.13578987121582 C 5.421509742736816 9.693079948425293 6.180009841918945 10 7 10 C 7.819989681243896 10 8.578490257263184 9.693079948425293 9.13578987121582 9.13578987121582 C 9.693079948425293 8.578490257263184 10 7.819990158081055 10 7.000000476837158 C 10 6.180010318756104 9.693079948425293 5.421510219573975 9.13578987121582 4.86421012878418 C 8.578490257263184 4.306920051574707 7.819989681243896 4.000000476837158 7 4.000000476837158 Z"/>
            </g>
            <circle id="Ellipse_23" data-name="Ellipse 23" class="cls-5" cx="5" cy="5" r="5" transform="translate(-94 7837)"/>
          </g>
        </g>
      </g>
      <g id="Group_13" data-name="Group 13" transform="translate(8.24 81.045)">
        <rect id="Rectangle_208" data-name="Rectangle 208" class="cls-9" width="35.944" height="41.935" rx="2" transform="matrix(0.951, -0.309, 0.309, 0.951, 0, 11.107)"/>
        <rect id="Rectangle_207" data-name="Rectangle 207" class="cls-9" width="35.944" height="41.935" rx="2" transform="translate(15.584 0.534)"/>
        <rect id="Rectangle_209" data-name="Rectangle 209" class="cls-7" width="13.624" height="1.409" rx="0.705" transform="translate(31.701 7.579)"/>
        <rect id="Rectangle_210" data-name="Rectangle 210" class="cls-7" width="13.624" height="1.409" rx="0.705" transform="translate(31.701 11.573)"/>
        <rect id="Rectangle_211" data-name="Rectangle 211" class="cls-7" width="13.624" height="1.409" rx="0.705" transform="translate(31.701 15.567)"/>
        <rect id="Rectangle_212" data-name="Rectangle 212" class="cls-7" width="23.609" height="1.409" rx="0.705" transform="translate(21.717 19.56)"/>
        <rect id="Rectangle_213" data-name="Rectangle 213" class="cls-7" width="23.609" height="1.409" rx="0.705" transform="translate(21.717 23.554)"/>
        <rect id="Rectangle_214" data-name="Rectangle 214" class="cls-7" width="23.609" height="1.409" rx="0.705" transform="translate(21.717 27.548)"/>
        <rect id="Rectangle_215" data-name="Rectangle 215" class="cls-7" width="23.609" height="1.409" rx="0.705" transform="translate(21.717 31.542)"/>
        <rect id="Rectangle_216" data-name="Rectangle 216" class="cls-7" width="23.609" height="1.409" rx="0.705" transform="translate(21.717 35.536)"/>
        <text id="_" data-name="$" class="cls-10" transform="translate(23.575 13.528)"><tspan x="-2.281" y="0">$</tspan></text>
      </g>
      <g id="Repeat_Grid_4" data-name="Repeat Grid 4" class="cls-11" transform="translate(8.462 66.468)">
        <g transform="translate(-24.462 -66.468)">
          <g id="Options" transform="translate(-1356.538 12.468)">
            <path id="Union_1" data-name="Union 1" class="cls-2" d="M0,13.5A1.5,1.5,0,1,1,1.5,15,1.5,1.5,0,0,1,0,13.5Zm0-6A1.5,1.5,0,1,1,1.5,9,1.5,1.5,0,0,1,0,7.5Zm0-6A1.5,1.5,0,1,1,1.5,3,1.5,1.5,0,0,1,0,1.5Z" transform="translate(1381 57) rotate(-90)"/>
          </g>
        </g>
        <g transform="translate(-5.462 -66.468)">
          <g id="Options-2" data-name="Options" transform="translate(-1356.538 12.468)">
            <path id="Union_1-2" data-name="Union 1" class="cls-2" d="M0,13.5A1.5,1.5,0,1,1,1.5,15,1.5,1.5,0,0,1,0,13.5Zm0-6A1.5,1.5,0,1,1,1.5,9,1.5,1.5,0,0,1,0,7.5Zm0-6A1.5,1.5,0,1,1,1.5,3,1.5,1.5,0,0,1,0,1.5Z" transform="translate(1381 57) rotate(-90)"/>
          </g>
        </g>
        <g transform="translate(13.538 -66.468)">
          <g id="Options-3" data-name="Options" transform="translate(-1356.538 12.468)">
            <path id="Union_1-3" data-name="Union 1" class="cls-2" d="M0,13.5A1.5,1.5,0,1,1,1.5,15,1.5,1.5,0,0,1,0,13.5Zm0-6A1.5,1.5,0,1,1,1.5,9,1.5,1.5,0,0,1,0,7.5Zm0-6A1.5,1.5,0,1,1,1.5,3,1.5,1.5,0,0,1,0,1.5Z" transform="translate(1381 57) rotate(-90)"/>
          </g>
        </g>
        <g transform="translate(32.538 -66.468)">
          <g id="Options-4" data-name="Options" transform="translate(-1356.538 12.468)">
            <path id="Union_1-4" data-name="Union 1" class="cls-2" d="M0,13.5A1.5,1.5,0,1,1,1.5,15,1.5,1.5,0,0,1,0,13.5Zm0-6A1.5,1.5,0,1,1,1.5,9,1.5,1.5,0,0,1,0,7.5Zm0-6A1.5,1.5,0,1,1,1.5,3,1.5,1.5,0,0,1,0,1.5Z" transform="translate(1381 57) rotate(-90)"/>
          </g>
        </g>
      </g>
    </g>
    <g id="Group_18" data-name="Group 18" transform="translate(753.636 463.557)">
      <g id="Group_15" data-name="Group 15" transform="translate(30.529 0)">
        <g id="Group_2" data-name="Group 2" transform="translate(0 0)">
          <rect id="Rectangle_194" data-name="Rectangle 194" class="cls-7" width="69.179" height="130.121" rx="5" transform="translate(0 0)"/>
          <rect id="Rectangle_195" data-name="Rectangle 195" class="cls-5" width="57.1" height="86.748" transform="translate(6.039 23.06)"/>
          <rect id="Rectangle_196" data-name="Rectangle 196" class="cls-5" width="13.177" height="3.294" rx="1.647" transform="translate(28.001 10.432)"/>
          <ellipse id="Ellipse_10" data-name="Ellipse 10" class="cls-5" cx="5.49" cy="5.49" rx="5.49" ry="5.49" transform="translate(29.099 113.65)"/>
        </g>
        <g id="Repeat_Grid_3" data-name="Repeat Grid 3" class="cls-12" transform="translate(48.396 42.833)">
          <g transform="translate(-781 -518)">
            <g id="Path_110" data-name="Path 110" class="cls-13" transform="translate(781 518)">
              <path class="cls-15" d="M 9.946561813354492 9.946561813354492 L 0.500001847743988 9.946561813354492 L 0.500001847743988 0.500001847743988 L 9.946561813354492 0.500001847743988 L 9.946561813354492 9.946561813354492 Z"/>
              <path class="cls-16" d="M 9.446561813354492 9.446561813354492 L 9.446561813354492 1.000001907348633 L 1.000001907348633 1.000001907348633 L 1.000001907348633 9.446561813354492 L 9.446561813354492 9.446561813354492 M 10.44656181335449 10.44656181335449 L 1.860351517279923e-06 10.44656181335449 L 1.860351517279923e-06 1.860351517279923e-06 L 10.44656181335449 1.860351517279923e-06 L 10.44656181335449 10.44656181335449 Z"/>
            </g>
          </g>
          <g transform="translate(-770 -518)">
            <g id="Path_110-2" data-name="Path 110" class="cls-13" transform="translate(781 518)">
              <path class="cls-15" d="M 9.946561813354492 9.946561813354492 L 0.500001847743988 9.946561813354492 L 0.500001847743988 0.500001847743988 L 9.946561813354492 0.500001847743988 L 9.946561813354492 9.946561813354492 Z"/>
              <path class="cls-16" d="M 9.446561813354492 9.446561813354492 L 9.446561813354492 1.000001907348633 L 1.000001907348633 1.000001907348633 L 1.000001907348633 9.446561813354492 L 9.446561813354492 9.446561813354492 M 10.44656181335449 10.44656181335449 L 1.860351517279923e-06 10.44656181335449 L 1.860351517279923e-06 1.860351517279923e-06 L 10.44656181335449 1.860351517279923e-06 L 10.44656181335449 10.44656181335449 Z"/>
            </g>
          </g>
          <g transform="translate(-759 -518)">
            <g id="Path_110-3" data-name="Path 110" class="cls-13" transform="translate(781 518)">
              <path class="cls-15" d="M 9.946561813354492 9.946561813354492 L 0.500001847743988 9.946561813354492 L 0.500001847743988 0.500001847743988 L 9.946561813354492 0.500001847743988 L 9.946561813354492 9.946561813354492 Z"/>
              <path class="cls-16" d="M 9.446561813354492 9.446561813354492 L 9.446561813354492 1.000001907348633 L 1.000001907348633 1.000001907348633 L 1.000001907348633 9.446561813354492 L 9.446561813354492 9.446561813354492 M 10.44656181335449 10.44656181335449 L 1.860351517279923e-06 10.44656181335449 L 1.860351517279923e-06 1.860351517279923e-06 L 10.44656181335449 1.860351517279923e-06 L 10.44656181335449 10.44656181335449 Z"/>
            </g>
          </g>
          <g transform="translate(-748 -518)">
            <g id="Path_110-4" data-name="Path 110" class="cls-13" transform="translate(781 518)">
              <path class="cls-15" d="M 9.946561813354492 9.946561813354492 L 0.500001847743988 9.946561813354492 L 0.500001847743988 0.500001847743988 L 9.946561813354492 0.500001847743988 L 9.946561813354492 9.946561813354492 Z"/>
              <path class="cls-16" d="M 9.446561813354492 9.446561813354492 L 9.446561813354492 1.000001907348633 L 1.000001907348633 1.000001907348633 L 1.000001907348633 9.446561813354492 L 9.446561813354492 9.446561813354492 M 10.44656181335449 10.44656181335449 L 1.860351517279923e-06 10.44656181335449 L 1.860351517279923e-06 1.860351517279923e-06 L 10.44656181335449 1.860351517279923e-06 L 10.44656181335449 10.44656181335449 Z"/>
            </g>
          </g>
          <g transform="translate(-781 -508)">
            <g id="Path_110-5" data-name="Path 110" class="cls-13" transform="translate(781 518)">
              <path class="cls-15" d="M 9.946561813354492 9.946561813354492 L 0.500001847743988 9.946561813354492 L 0.500001847743988 0.500001847743988 L 9.946561813354492 0.500001847743988 L 9.946561813354492 9.946561813354492 Z"/>
              <path class="cls-16" d="M 9.446561813354492 9.446561813354492 L 9.446561813354492 1.000001907348633 L 1.000001907348633 1.000001907348633 L 1.000001907348633 9.446561813354492 L 9.446561813354492 9.446561813354492 M 10.44656181335449 10.44656181335449 L 1.860351517279923e-06 10.44656181335449 L 1.860351517279923e-06 1.860351517279923e-06 L 10.44656181335449 1.860351517279923e-06 L 10.44656181335449 10.44656181335449 Z"/>
            </g>
          </g>
          <g transform="translate(-770 -508)">
            <g id="Path_110-6" data-name="Path 110" class="cls-13" transform="translate(781 518)">
              <path class="cls-15" d="M 9.946561813354492 9.946561813354492 L 0.500001847743988 9.946561813354492 L 0.500001847743988 0.500001847743988 L 9.946561813354492 0.500001847743988 L 9.946561813354492 9.946561813354492 Z"/>
              <path class="cls-16" d="M 9.446561813354492 9.446561813354492 L 9.446561813354492 1.000001907348633 L 1.000001907348633 1.000001907348633 L 1.000001907348633 9.446561813354492 L 9.446561813354492 9.446561813354492 M 10.44656181335449 10.44656181335449 L 1.860351517279923e-06 10.44656181335449 L 1.860351517279923e-06 1.860351517279923e-06 L 10.44656181335449 1.860351517279923e-06 L 10.44656181335449 10.44656181335449 Z"/>
            </g>
          </g>
          <g transform="translate(-759 -508)">
            <g id="Path_110-7" data-name="Path 110" class="cls-13" transform="translate(781 518)">
              <path class="cls-15" d="M 9.946561813354492 9.946561813354492 L 0.500001847743988 9.946561813354492 L 0.500001847743988 0.500001847743988 L 9.946561813354492 0.500001847743988 L 9.946561813354492 9.946561813354492 Z"/>
              <path class="cls-16" d="M 9.446561813354492 9.446561813354492 L 9.446561813354492 1.000001907348633 L 1.000001907348633 1.000001907348633 L 1.000001907348633 9.446561813354492 L 9.446561813354492 9.446561813354492 M 10.44656181335449 10.44656181335449 L 1.860351517279923e-06 10.44656181335449 L 1.860351517279923e-06 1.860351517279923e-06 L 10.44656181335449 1.860351517279923e-06 L 10.44656181335449 10.44656181335449 Z"/>
            </g>
          </g>
          <g transform="translate(-748 -508)">
            <g id="Path_110-8" data-name="Path 110" class="cls-13" transform="translate(781 518)">
              <path class="cls-15" d="M 9.946561813354492 9.946561813354492 L 0.500001847743988 9.946561813354492 L 0.500001847743988 0.500001847743988 L 9.946561813354492 0.500001847743988 L 9.946561813354492 9.946561813354492 Z"/>
              <path class="cls-16" d="M 9.446561813354492 9.446561813354492 L 9.446561813354492 1.000001907348633 L 1.000001907348633 1.000001907348633 L 1.000001907348633 9.446561813354492 L 9.446561813354492 9.446561813354492 M 10.44656181335449 10.44656181335449 L 1.860351517279923e-06 10.44656181335449 L 1.860351517279923e-06 1.860351517279923e-06 L 10.44656181335449 1.860351517279923e-06 L 10.44656181335449 10.44656181335449 Z"/>
            </g>
          </g>
          <g transform="translate(-781 -498)">
            <g id="Path_110-9" data-name="Path 110" class="cls-13" transform="translate(781 518)">
              <path class="cls-15" d="M 9.946561813354492 9.946561813354492 L 0.500001847743988 9.946561813354492 L 0.500001847743988 0.500001847743988 L 9.946561813354492 0.500001847743988 L 9.946561813354492 9.946561813354492 Z"/>
              <path class="cls-16" d="M 9.446561813354492 9.446561813354492 L 9.446561813354492 1.000001907348633 L 1.000001907348633 1.000001907348633 L 1.000001907348633 9.446561813354492 L 9.446561813354492 9.446561813354492 M 10.44656181335449 10.44656181335449 L 1.860351517279923e-06 10.44656181335449 L 1.860351517279923e-06 1.860351517279923e-06 L 10.44656181335449 1.860351517279923e-06 L 10.44656181335449 10.44656181335449 Z"/>
            </g>
          </g>
          <g transform="translate(-770 -498)">
            <g id="Path_110-10" data-name="Path 110" class="cls-13" transform="translate(781 518)">
              <path class="cls-15" d="M 9.946561813354492 9.946561813354492 L 0.500001847743988 9.946561813354492 L 0.500001847743988 0.500001847743988 L 9.946561813354492 0.500001847743988 L 9.946561813354492 9.946561813354492 Z"/>
              <path class="cls-16" d="M 9.446561813354492 9.446561813354492 L 9.446561813354492 1.000001907348633 L 1.000001907348633 1.000001907348633 L 1.000001907348633 9.446561813354492 L 9.446561813354492 9.446561813354492 M 10.44656181335449 10.44656181335449 L 1.860351517279923e-06 10.44656181335449 L 1.860351517279923e-06 1.860351517279923e-06 L 10.44656181335449 1.860351517279923e-06 L 10.44656181335449 10.44656181335449 Z"/>
            </g>
          </g>
          <g transform="translate(-759 -498)">
            <g id="Path_110-11" data-name="Path 110" class="cls-13" transform="translate(781 518)">
              <path class="cls-15" d="M 9.946561813354492 9.946561813354492 L 0.500001847743988 9.946561813354492 L 0.500001847743988 0.500001847743988 L 9.946561813354492 0.500001847743988 L 9.946561813354492 9.946561813354492 Z"/>
              <path class="cls-16" d="M 9.446561813354492 9.446561813354492 L 9.446561813354492 1.000001907348633 L 1.000001907348633 1.000001907348633 L 1.000001907348633 9.446561813354492 L 9.446561813354492 9.446561813354492 M 10.44656181335449 10.44656181335449 L 1.860351517279923e-06 10.44656181335449 L 1.860351517279923e-06 1.860351517279923e-06 L 10.44656181335449 1.860351517279923e-06 L 10.44656181335449 10.44656181335449 Z"/>
            </g>
          </g>
          <g transform="translate(-748 -498)">
            <g id="Path_110-12" data-name="Path 110" class="cls-13" transform="translate(781 518)">
              <path class="cls-15" d="M 9.946561813354492 9.946561813354492 L 0.500001847743988 9.946561813354492 L 0.500001847743988 0.500001847743988 L 9.946561813354492 0.500001847743988 L 9.946561813354492 9.946561813354492 Z"/>
              <path class="cls-16" d="M 9.446561813354492 9.446561813354492 L 9.446561813354492 1.000001907348633 L 1.000001907348633 1.000001907348633 L 1.000001907348633 9.446561813354492 L 9.446561813354492 9.446561813354492 M 10.44656181335449 10.44656181335449 L 1.860351517279923e-06 10.44656181335449 L 1.860351517279923e-06 1.860351517279923e-06 L 10.44656181335449 1.860351517279923e-06 L 10.44656181335449 10.44656181335449 Z"/>
            </g>
          </g>
          <g transform="translate(-781 -488)">
            <g id="Path_110-13" data-name="Path 110" class="cls-13" transform="translate(781 518)">
              <path class="cls-15" d="M 9.946561813354492 9.946561813354492 L 0.500001847743988 9.946561813354492 L 0.500001847743988 0.500001847743988 L 9.946561813354492 0.500001847743988 L 9.946561813354492 9.946561813354492 Z"/>
              <path class="cls-16" d="M 9.446561813354492 9.446561813354492 L 9.446561813354492 1.000001907348633 L 1.000001907348633 1.000001907348633 L 1.000001907348633 9.446561813354492 L 9.446561813354492 9.446561813354492 M 10.44656181335449 10.44656181335449 L 1.860351517279923e-06 10.44656181335449 L 1.860351517279923e-06 1.860351517279923e-06 L 10.44656181335449 1.860351517279923e-06 L 10.44656181335449 10.44656181335449 Z"/>
            </g>
          </g>
          <g transform="translate(-770 -488)">
            <g id="Path_110-14" data-name="Path 110" class="cls-13" transform="translate(781 518)">
              <path class="cls-15" d="M 9.946561813354492 9.946561813354492 L 0.500001847743988 9.946561813354492 L 0.500001847743988 0.500001847743988 L 9.946561813354492 0.500001847743988 L 9.946561813354492 9.946561813354492 Z"/>
              <path class="cls-16" d="M 9.446561813354492 9.446561813354492 L 9.446561813354492 1.000001907348633 L 1.000001907348633 1.000001907348633 L 1.000001907348633 9.446561813354492 L 9.446561813354492 9.446561813354492 M 10.44656181335449 10.44656181335449 L 1.860351517279923e-06 10.44656181335449 L 1.860351517279923e-06 1.860351517279923e-06 L 10.44656181335449 1.860351517279923e-06 L 10.44656181335449 10.44656181335449 Z"/>
            </g>
          </g>
          <g transform="translate(-759 -488)">
            <g id="Path_110-15" data-name="Path 110" class="cls-13" transform="translate(781 518)">
              <path class="cls-15" d="M 9.946561813354492 9.946561813354492 L 0.500001847743988 9.946561813354492 L 0.500001847743988 0.500001847743988 L 9.946561813354492 0.500001847743988 L 9.946561813354492 9.946561813354492 Z"/>
              <path class="cls-16" d="M 9.446561813354492 9.446561813354492 L 9.446561813354492 1.000001907348633 L 1.000001907348633 1.000001907348633 L 1.000001907348633 9.446561813354492 L 9.446561813354492 9.446561813354492 M 10.44656181335449 10.44656181335449 L 1.860351517279923e-06 10.44656181335449 L 1.860351517279923e-06 1.860351517279923e-06 L 10.44656181335449 1.860351517279923e-06 L 10.44656181335449 10.44656181335449 Z"/>
            </g>
          </g>
          <g transform="translate(-748 -488)">
            <g id="Path_110-16" data-name="Path 110" class="cls-13" transform="translate(781 518)">
              <path class="cls-15" d="M 9.946561813354492 9.946561813354492 L 0.500001847743988 9.946561813354492 L 0.500001847743988 0.500001847743988 L 9.946561813354492 0.500001847743988 L 9.946561813354492 9.946561813354492 Z"/>
              <path class="cls-16" d="M 9.446561813354492 9.446561813354492 L 9.446561813354492 1.000001907348633 L 1.000001907348633 1.000001907348633 L 1.000001907348633 9.446561813354492 L 9.446561813354492 9.446561813354492 M 10.44656181335449 10.44656181335449 L 1.860351517279923e-06 10.44656181335449 L 1.860351517279923e-06 1.860351517279923e-06 L 10.44656181335449 1.860351517279923e-06 L 10.44656181335449 10.44656181335449 Z"/>
            </g>
          </g>
          <g transform="translate(-781 -478)">
            <g id="Path_110-17" data-name="Path 110" class="cls-13" transform="translate(781 518)">
              <path class="cls-15" d="M 9.946561813354492 9.946561813354492 L 0.500001847743988 9.946561813354492 L 0.500001847743988 0.500001847743988 L 9.946561813354492 0.500001847743988 L 9.946561813354492 9.946561813354492 Z"/>
              <path class="cls-16" d="M 9.446561813354492 9.446561813354492 L 9.446561813354492 1.000001907348633 L 1.000001907348633 1.000001907348633 L 1.000001907348633 9.446561813354492 L 9.446561813354492 9.446561813354492 M 10.44656181335449 10.44656181335449 L 1.860351517279923e-06 10.44656181335449 L 1.860351517279923e-06 1.860351517279923e-06 L 10.44656181335449 1.860351517279923e-06 L 10.44656181335449 10.44656181335449 Z"/>
            </g>
          </g>
          <g transform="translate(-770 -478)">
            <g id="Path_110-18" data-name="Path 110" class="cls-13" transform="translate(781 518)">
              <path class="cls-15" d="M 9.946561813354492 9.946561813354492 L 0.500001847743988 9.946561813354492 L 0.500001847743988 0.500001847743988 L 9.946561813354492 0.500001847743988 L 9.946561813354492 9.946561813354492 Z"/>
              <path class="cls-16" d="M 9.446561813354492 9.446561813354492 L 9.446561813354492 1.000001907348633 L 1.000001907348633 1.000001907348633 L 1.000001907348633 9.446561813354492 L 9.446561813354492 9.446561813354492 M 10.44656181335449 10.44656181335449 L 1.860351517279923e-06 10.44656181335449 L 1.860351517279923e-06 1.860351517279923e-06 L 10.44656181335449 1.860351517279923e-06 L 10.44656181335449 10.44656181335449 Z"/>
            </g>
          </g>
          <g transform="translate(-759 -478)">
            <g id="Path_110-19" data-name="Path 110" class="cls-13" transform="translate(781 518)">
              <path class="cls-15" d="M 9.946561813354492 9.946561813354492 L 0.500001847743988 9.946561813354492 L 0.500001847743988 0.500001847743988 L 9.946561813354492 0.500001847743988 L 9.946561813354492 9.946561813354492 Z"/>
              <path class="cls-16" d="M 9.446561813354492 9.446561813354492 L 9.446561813354492 1.000001907348633 L 1.000001907348633 1.000001907348633 L 1.000001907348633 9.446561813354492 L 9.446561813354492 9.446561813354492 M 10.44656181335449 10.44656181335449 L 1.860351517279923e-06 10.44656181335449 L 1.860351517279923e-06 1.860351517279923e-06 L 10.44656181335449 1.860351517279923e-06 L 10.44656181335449 10.44656181335449 Z"/>
            </g>
          </g>
          <g transform="translate(-748 -478)">
            <g id="Path_110-20" data-name="Path 110" class="cls-13" transform="translate(781 518)">
              <path class="cls-15" d="M 9.946561813354492 9.946561813354492 L 0.500001847743988 9.946561813354492 L 0.500001847743988 0.500001847743988 L 9.946561813354492 0.500001847743988 L 9.946561813354492 9.946561813354492 Z"/>
              <path class="cls-16" d="M 9.446561813354492 9.446561813354492 L 9.446561813354492 1.000001907348633 L 1.000001907348633 1.000001907348633 L 1.000001907348633 9.446561813354492 L 9.446561813354492 9.446561813354492 M 10.44656181335449 10.44656181335449 L 1.860351517279923e-06 10.44656181335449 L 1.860351517279923e-06 1.860351517279923e-06 L 10.44656181335449 1.860351517279923e-06 L 10.44656181335449 10.44656181335449 Z"/>
            </g>
          </g>
        </g>
      </g>
      <g id="Repeat_Grid_5" data-name="Repeat Grid 5" class="cls-14" transform="translate(-9 65.366)">
        <g transform="translate(9 -65.366)">
          <g id="Options-5" data-name="Options" transform="translate(-1390 11.365)">
            <path id="Union_1-5" data-name="Union 1" class="cls-2" d="M0,13.5A1.5,1.5,0,1,1,1.5,15,1.5,1.5,0,0,1,0,13.5Zm0-6A1.5,1.5,0,1,1,1.5,9,1.5,1.5,0,0,1,0,7.5Zm0-6A1.5,1.5,0,1,1,1.5,3,1.5,1.5,0,0,1,0,1.5Z" transform="translate(1381 57) rotate(-90)"/>
          </g>
        </g>
        <g transform="translate(28 -65.366)">
          <g id="Options-6" data-name="Options" transform="translate(-1390 11.365)">
            <path id="Union_1-6" data-name="Union 1" class="cls-2" d="M0,13.5A1.5,1.5,0,1,1,1.5,15,1.5,1.5,0,0,1,0,13.5Zm0-6A1.5,1.5,0,1,1,1.5,9,1.5,1.5,0,0,1,0,7.5Zm0-6A1.5,1.5,0,1,1,1.5,3,1.5,1.5,0,0,1,0,1.5Z" transform="translate(1381 57) rotate(-90)"/>
          </g>
        </g>
      </g>
    </g>
  </g>
</svg>
