<svg xmlns="http://www.w3.org/2000/svg" viewBox="0 0 369 136.251">
  <defs>
    <style>
      .cls-1 {
        fill: #231f20;
        font-size: 59px;
        font-family: CenturyGothic, Century Gothic;
      }

      .cls-2 {
        fill: #1e4a6d;
      }

      .cls-3 {
        fill: #fff;
      }

      .cls-4, .cls-5 {
        fill: none;
        stroke-miterlimit: 10;
      }

      .cls-4 {
        stroke: #1e4a6d;
        stroke-width: 3px;
      }

      .cls-5 {
        stroke: #939598;
        stroke-width: 0.25px;
      }

      .cls-6 {
        fill: #939598;
      }
    </style>
  </defs>
  <g id="eeZE1" transform="translate(37.474)">
    <text id="eeZ" class="cls-1" transform="translate(52.529 90.755)"><tspan x="0" y="0">eeZ</tspan></text>
    <path id="Path_1" data-name="Path 1" class="cls-2" d="M201.088,42.409A32.822,32.822,0,0,0,169.4,17.75,33.256,33.256,0,0,0,137.38,42.409Z" transform="translate(33.998 -5.019)"/>
    <path id="Path_2" data-name="Path 2" class="cls-2" d="M202.249,40.5H136.7a31.876,31.876,0,0,0-.158,3.186V87.343a15.8,15.8,0,0,0,15.8,15.8h34.23a15.8,15.8,0,0,0,15.8-15.8v-44.1C202.368,42.317,202.315,41.408,202.249,40.5ZM171.007,93.162H145.993V48.676H170.06v4.819h-18.3V67.582h17.313v4.753H151.707V88.4h19.288v4.819Zm19.959,2.185h-5.108V61.354h-.118l-6.78,3.66-1-4.029,8.518-4.555h4.5V95.4Z" transform="translate(33.732 2.183)"/>
    <circle id="Ellipse_1" data-name="Ellipse 1" class="cls-3" cx="4.384" cy="4.384" r="4.384" transform="translate(188.217 23.593)"/>
    <circle id="Ellipse_2" data-name="Ellipse 2" class="cls-3" cx="4.384" cy="4.384" r="4.384" transform="translate(209.401 23.593)"/>
    <line id="Line_1" data-name="Line 1" class="cls-4" y1="20.63" x2="10.085" transform="translate(219.92 2.409)"/>
    <circle id="Ellipse_3" data-name="Ellipse 3" class="cls-2" cx="4.384" cy="4.384" r="4.384" transform="translate(224.33 0)"/>
    <line id="Line_2" data-name="Line 2" class="cls-4" x1="10.322" y1="20.63" transform="translate(176.447 2.409)"/>
    <ellipse id="Ellipse_4" data-name="Ellipse 4" class="cls-2" cx="4.489" cy="4.384" rx="4.489" ry="4.384" transform="translate(173.287 0)"/>
    <line id="Line_3" data-name="Line 3" class="cls-5" x2="369" transform="translate(-37.474 115.725)"/>
    <path id="Path_3" data-name="Path 3" class="cls-6" d="M6.856,114.993a.184.184,0,0,1,0,.1H5.783a.185.185,0,0,1,0-.1v-11.3a.184.184,0,0,1,0-.1h1.04a.2.2,0,0,1,0,.1v11.3Z" transform="translate(-42.1 20.922)"/>
    <path id="Path_196" data-name="Path 196" class="cls-6" d="M6.856,114.993a.184.184,0,0,1,0,.1H5.783a.185.185,0,0,1,0-.1v-11.3a.184.184,0,0,1,0-.1h1.04a.2.2,0,0,1,0,.1v11.3Z" transform="translate(30.9 20.922)"/>
    <path id="Path_4" data-name="Path 4" class="cls-6" d="M19.007,114.675a.637.637,0,0,1,0,.268.537.537,0,0,1-.134.184l-.168.1h-.436a1.092,1.092,0,0,1-.335,0,.839.839,0,0,1-.285-.151,1.677,1.677,0,0,1-.285-.3,5.033,5.033,0,0,1-.319-.486L12.9,106.961l-.62-1.09-.587-1.09h0v10.246a.184.184,0,0,1,0,.1H10.673a.184.184,0,0,1,0-.1V104.11a.52.52,0,0,1,.168-.453.587.587,0,0,1,.335-.117h.8a.721.721,0,0,1,.268.117,1.089,1.089,0,0,1,.235.252,4.175,4.175,0,0,1,.252.4l3.153,5.584.57,1.006.52.939.5.922.453.939h0v-9.961a.2.2,0,0,1,0-.1h1.04a.168.168,0,0,1,0,.1v10.917Z" transform="translate(-38.79 20.888)"/>
    <path id="Path_5" data-name="Path 5" class="cls-6" d="M27.538,104.03a1.056,1.056,0,0,1,0,.2.419.419,0,0,1,0,.151l-.084.084H23.782v10.5a.184.184,0,0,1,0,.1H22.725a.184.184,0,0,1,0-.1v-10.5H19.086L19,104.382a.453.453,0,0,1,0-.151,1.057,1.057,0,0,1,0-.2,1.19,1.19,0,0,1,0-.218.537.537,0,0,1,0-.151l.084-.1h8.3a.252.252,0,0,1,.084.1.486.486,0,0,1,0,.151,1.193,1.193,0,0,1,.067.218Z" transform="translate(-33.15 20.901)"/>
    <path id="Path_6" data-name="Path 6" class="cls-6" d="M33.657,114.729a1.105,1.105,0,0,1,0,.2.452.452,0,0,1,0,.151l-.1.1H27.9a.587.587,0,0,1-.335-.117.52.52,0,0,1-.168-.453V104.08a.52.52,0,0,1,.168-.453.587.587,0,0,1,.335-.117h5.5a.251.251,0,0,1,.084.1.486.486,0,0,1,0,.151,1.193,1.193,0,0,1,0,.218,1.057,1.057,0,0,1,0,.2.419.419,0,0,1,0,.151l-.084.084h-4.9v4.109h4.259l.084.084a.47.47,0,0,1,0,.151,1.258,1.258,0,0,1,0,.218,1.038,1.038,0,0,1,0,.2.4.4,0,0,1,0,.134H28.509v4.645h5.048l.034.436a.4.4,0,0,1,0,.151A1.222,1.222,0,0,1,33.657,114.729Z" transform="translate(-27.463 20.868)"/>
    <path id="Path_7" data-name="Path 7" class="cls-6" d="M40.795,114.678a1.107,1.107,0,0,1,0,.218.57.57,0,0,1,0,.151.235.235,0,0,1-.084.1H35.546a.587.587,0,0,1-.335-.117.52.52,0,0,1-.168-.453V103.661a.2.2,0,0,1,0-.1h1.023a.2.2,0,0,1,0,.1v10.481h4.578l.084.218a.469.469,0,0,1,0,.151A1.155,1.155,0,0,1,40.795,114.678Z" transform="translate(-22.292 20.901)"/>
    <path id="Path_8" data-name="Path 8" class="cls-6" d="M47.615,114.678a1.106,1.106,0,0,1,0,.218.571.571,0,0,1,0,.151.235.235,0,0,1-.084.1H42.366a.587.587,0,0,1-.335-.117.52.52,0,0,1-.168-.453V103.661a.2.2,0,0,1,0-.1h1.023a.2.2,0,0,1,0,.1v10.481H47.48l.067.218a.469.469,0,0,1,0,.151,1.156,1.156,0,0,1,.067.168Z" transform="translate(-17.675 20.901)"/>
    <path id="Path_10" data-name="Path 10" class="cls-6" d="M64.81,105.067a1.258,1.258,0,0,1,0,.218.689.689,0,0,1,0,.168.252.252,0,0,1,0,.1h-.1a.772.772,0,0,1-.352-.184,5.16,5.16,0,0,0-.671-.386,6.351,6.351,0,0,0-1.006-.386,4.845,4.845,0,0,0-1.409-.185,4.276,4.276,0,0,0-1.845.386,3.991,3.991,0,0,0-1.375,1.056,4.629,4.629,0,0,0-.855,1.576,6.406,6.406,0,0,0-.285,1.962,6.172,6.172,0,0,0,.335,2.113,4.494,4.494,0,0,0,.922,1.56,3.924,3.924,0,0,0,1.409.973,4.645,4.645,0,0,0,1.677.4,5.433,5.433,0,0,0,1.258-.151,4.628,4.628,0,0,0,1.207-.47v-3.773H60.7a.235.235,0,0,1-.218-.134.738.738,0,0,1,0-.352,1.191,1.191,0,0,1,0-.218.487.487,0,0,1,0-.151l.084-.084h3.874l.168.084a.419.419,0,0,1,.117.168.754.754,0,0,1,0,.268v4.343a.906.906,0,0,1,0,.369.688.688,0,0,1-.319.285,5.656,5.656,0,0,1-.654.3,6.853,6.853,0,0,1-.838.285,7.3,7.3,0,0,1-.872.168,6.429,6.429,0,0,1-.855,0,6.188,6.188,0,0,1-2.365-.436,4.846,4.846,0,0,1-1.677-1.207,5.316,5.316,0,0,1-1.09-1.861,7.7,7.7,0,0,1,.017-4.863A5.551,5.551,0,0,1,57.23,105.1a5.148,5.148,0,0,1,1.778-1.224,6.171,6.171,0,0,1,3.488-.319,6.941,6.941,0,0,1,1.006.285,4.358,4.358,0,0,1,.771.352,2.667,2.667,0,0,1,.436.3.637.637,0,0,1,.151.218.956.956,0,0,1-.05.352Z" transform="translate(-10.324 20.82)"/>
    <path id="Path_11" data-name="Path 11" class="cls-6" d="M71.457,114.729a1.108,1.108,0,0,1,0,.2.454.454,0,0,1,0,.151l-.1.1H65.7a.587.587,0,0,1-.335-.117.52.52,0,0,1-.168-.453V104.08a.52.52,0,0,1,.168-.453.587.587,0,0,1,.335-.117h5.5a.251.251,0,0,1,.084.1.486.486,0,0,1,0,.151,1.191,1.191,0,0,1,0,.218,1.061,1.061,0,0,1,0,.2.419.419,0,0,1,0,.151l-.084.084h-4.9v4.109h4.259l.084.084a.47.47,0,0,1,0,.151,1.258,1.258,0,0,1,0,.218,1.037,1.037,0,0,1,0,.2.4.4,0,0,1,0,.134H66.309v4.645h4.981l.1.436a.4.4,0,0,1,0,.151A1.226,1.226,0,0,1,71.457,114.729Z" transform="translate(-3.874 20.868)"/>
    <path id="Path_12" data-name="Path 12" class="cls-6" d="M81.12,114.655a.637.637,0,0,1,0,.268.536.536,0,0,1-.134.184l-.168.1h-.453a1.091,1.091,0,0,1-.335,0,.838.838,0,0,1-.285-.151,1.678,1.678,0,0,1-.285-.3,5.024,5.024,0,0,1-.319-.486l-4.109-7.278-.62-1.09-.587-1.09h0v10.246a.185.185,0,0,1,0,.1h-.973a.184.184,0,0,1,0-.1V104.14a.52.52,0,0,1,.168-.453.587.587,0,0,1,.335-.117h.8a.72.72,0,0,1,.268.117,1.089,1.089,0,0,1,.235.252q.067.173.117.352l3.153,5.584.57,1.006.52.939.5.922.486.906h0v-9.961a.2.2,0,0,1,0-.1h1.073a.168.168,0,0,1,0,.1V114.6Z" transform="translate(1.303 20.908)"/>
    <path id="Path_13" data-name="Path 13" class="cls-6" d="M89.685,104.03a1.058,1.058,0,0,1,0,.2.42.42,0,0,1,0,.151l-.084.084H85.945v10.5a.185.185,0,0,1,0,.1h-1.09a.184.184,0,0,1,0-.1v-10.5H81.216l-.084-.084a.453.453,0,0,1,0-.151,1.058,1.058,0,0,1,0-.2,1.191,1.191,0,0,1,0-.218.536.536,0,0,1,0-.151l.084-.1h8.3a.251.251,0,0,1,.084.1.488.488,0,0,1,0,.151A1.191,1.191,0,0,1,89.685,104.03Z" transform="translate(6.909 20.901)"/>
    <path id="Path_14" data-name="Path 14" class="cls-6" d="M97.209,112.353a5.888,5.888,0,0,1-.117,1.191,2.415,2.415,0,0,1-.386.922,1.845,1.845,0,0,1-.738.6,2.734,2.734,0,0,1-1.14.218h-.486l-.436-.117-.352-.151-.2-.134v-.2a.623.623,0,0,1,0-.151s0-.134,0-.218a1.173,1.173,0,0,1,0-.218.418.418,0,0,1,0-.134h.1a.385.385,0,0,1,.184,0l.285.168.386.168a1.676,1.676,0,0,0,.52,0,1.794,1.794,0,0,0,.57,0,.771.771,0,0,0,.386-.319,1.794,1.794,0,0,0,.235-.637,6.122,6.122,0,0,0,0-1.073v-8.519a.2.2,0,0,1,0-.1h1.023a.2.2,0,0,1,0,.1v8.7Z" transform="translate(16.182 20.962)"/>
    <path id="Path_15" data-name="Path 15" class="cls-6" d="M108.461,109.206a8.267,8.267,0,0,1-.369,2.583,4.9,4.9,0,0,1-1.09,1.878,4.6,4.6,0,0,1-1.778,1.14,7.362,7.362,0,0,1-2.532.386h-2.3a.587.587,0,0,1-.335-.117.52.52,0,0,1-.168-.453V104.091a.52.52,0,0,1,.168-.453.587.587,0,0,1,.335-.117h2.448a6.843,6.843,0,0,1,2.515.4,4.645,4.645,0,0,1,1.677,1.157,4.9,4.9,0,0,1,1.04,1.778,7.245,7.245,0,0,1,.386,2.348Zm-1.174,0a6.707,6.707,0,0,0-.252-1.895,4.041,4.041,0,0,0-.788-1.509,3.656,3.656,0,0,0-1.358-.989,5.282,5.282,0,0,0-2.1-.352H101v9.693h1.811a6.07,6.07,0,0,0,2.012-.285,3.354,3.354,0,0,0,1.375-.906,3.958,3.958,0,0,0,.822-1.543,7.915,7.915,0,0,0,.235-2.147Z" transform="translate(20.609 20.873)"/>
    <path id="Path_16" data-name="Path 16" class="cls-6" d="M114.98,114.729a.97.97,0,0,1,0,.2.419.419,0,0,1,0,.151l-.1.1h-5.584a.587.587,0,0,1-.335-.117.52.52,0,0,1-.168-.453V104.08a.52.52,0,0,1,.168-.453.587.587,0,0,1,.335-.117h5.5a.235.235,0,0,1,.084.1.487.487,0,0,1,0,.151,1.258,1.258,0,0,1,0,.218,1.122,1.122,0,0,1,0,.2.42.42,0,0,1,0,.151l-.084.084h-4.9v4.109h4.259l.084.084a.47.47,0,0,1,0,.151,1.252,1.252,0,0,1,0,.218,1.04,1.04,0,0,1,0,.2.4.4,0,0,1,0,.134H109.9v4.645h4.981l.1.084a.386.386,0,0,1,0,.151A1.09,1.09,0,0,1,114.98,114.729Z" transform="translate(26.634 20.868)"/>
    <path id="Path_17" data-name="Path 17" class="cls-6" d="M129.83,114.806a.586.586,0,0,1,0,.218.168.168,0,0,1,0,.134.369.369,0,0,1-.184,0h-.906v-.1l-1.124-3.1H122.5l-1.073,3.086a.285.285,0,0,1,0,.1h-.889a.385.385,0,0,1-.184,0,.168.168,0,0,1,0-.134.536.536,0,0,1,0-.218l4.092-11.1a.3.3,0,0,1,0-.117h1.224a.335.335,0,0,1,0,.117Zm-4.846-10.062h0L122.72,111h4.461Z" transform="translate(34.456 20.908)"/>
    <path id="Path_18" data-name="Path 18" class="cls-6" d="M136.144,106.884a3.906,3.906,0,0,1-.268,1.492,3.355,3.355,0,0,1-.788,1.157,3.555,3.555,0,0,1-1.258.755,5.216,5.216,0,0,1-1.778.268h-1.509v4.461a.184.184,0,0,1,0,.1h-1.09a.185.185,0,0,1,0-.1V104.1a.52.52,0,0,1,.168-.453.587.587,0,0,1,.335-.117h3.052a5.857,5.857,0,0,1,.771.134,3.1,3.1,0,0,1,.906.386,2.985,2.985,0,0,1,.788.688,3.034,3.034,0,0,1,.5.939A3.621,3.621,0,0,1,136.144,106.884Zm-1.157.1a2.582,2.582,0,0,0-.3-1.291,2.08,2.08,0,0,0-.721-.788,2.431,2.431,0,0,0-.889-.319,6.238,6.238,0,0,0-.872,0h-1.677v5.031h1.526a3.655,3.655,0,0,0,1.275-.2,2.481,2.481,0,0,0,.872-.537,2.3,2.3,0,0,0,.537-.822,2.918,2.918,0,0,0,.235-1.073Z" transform="translate(40.619 20.881)"/>
    <path id="Path_19" data-name="Path 19" class="cls-6" d="M143.927,106.884a3.907,3.907,0,0,1-.268,1.492,3.354,3.354,0,0,1-.788,1.157,3.555,3.555,0,0,1-1.258.755,5.216,5.216,0,0,1-1.778.268h-1.509v4.461a.185.185,0,0,1,0,.1h-1.073a.185.185,0,0,1,0-.1V104.1a.52.52,0,0,1,.168-.453.587.587,0,0,1,.335-.117h3.052a5.855,5.855,0,0,1,.771.134,3.1,3.1,0,0,1,.906.386,2.985,2.985,0,0,1,.788.688,3.036,3.036,0,0,1,.5.939A3.623,3.623,0,0,1,143.927,106.884Zm-1.157.1a2.583,2.583,0,0,0-.3-1.291,2.079,2.079,0,0,0-.721-.788,2.431,2.431,0,0,0-.889-.319,6.238,6.238,0,0,0-.872,0h-1.677v5.031H139.9a3.655,3.655,0,0,0,1.274-.2,2.481,2.481,0,0,0,.872-.537,2.3,2.3,0,0,0,.537-.822,2.917,2.917,0,0,0,.184-1.073Z" transform="translate(45.9 20.881)"/>
    <path id="Path_20" data-name="Path 20" class="cls-6" d="M152.3,111.95a3.642,3.642,0,0,1-.117.956,3.084,3.084,0,0,1-.352.8,2.816,2.816,0,0,1-.553.637,3.353,3.353,0,0,1-.738.47,4.008,4.008,0,0,1-.889.285,5.434,5.434,0,0,1-1.107.1h-3.019a.587.587,0,0,1-.335-.117.52.52,0,0,1-.168-.453V104.1a.52.52,0,0,1,.168-.453.587.587,0,0,1,.335-.117h2.5a5.433,5.433,0,0,1,1.677.2,2.784,2.784,0,0,1,1.04.587,2.4,2.4,0,0,1,.62.922,3.47,3.47,0,0,1,.2,1.207,3.351,3.351,0,0,1-.1.788,2.7,2.7,0,0,1-.285.7,2.484,2.484,0,0,1-.47.587,2.634,2.634,0,0,1-.671.436,2.684,2.684,0,0,1,.889.335,2.818,2.818,0,0,1,.721.62,2.987,2.987,0,0,1,.486.872A3.237,3.237,0,0,1,152.3,111.95Zm-1.928-5.383a2.616,2.616,0,0,0-.134-.838,1.677,1.677,0,0,0-.4-.637,1.845,1.845,0,0,0-.721-.4,3.907,3.907,0,0,0-1.174-.151h-1.828v4.176h2a2.733,2.733,0,0,0,1.057-.168,1.861,1.861,0,0,0,.671-.47,1.961,1.961,0,0,0,.386-.688,2.667,2.667,0,0,0,.151-.838Zm.755,5.484a2.6,2.6,0,0,0-.184-1.023,1.9,1.9,0,0,0-.537-.738,2.4,2.4,0,0,0-.872-.453,4.645,4.645,0,0,0-1.291-.151h-2.1v4.545h2.549a3.168,3.168,0,0,0,.989-.134,2.28,2.28,0,0,0,.755-.419,1.979,1.979,0,0,0,.52-.688,2.2,2.2,0,0,0,.168-.956Z" transform="translate(51.161 20.88)"/>
    <path id="Path_21" data-name="Path 21" class="cls-6" d="M161.491,110.9a5.515,5.515,0,0,1-.3,1.895,3.824,3.824,0,0,1-.855,1.392,3.656,3.656,0,0,1-1.358.855,5.031,5.031,0,0,1-1.778.285,4.7,4.7,0,0,1-1.677-.285,3.572,3.572,0,0,1-1.291-.822,3.74,3.74,0,0,1-.855-1.358,5.3,5.3,0,0,1-.3-1.861v-7.328a.2.2,0,0,1,0-.1h1.04a.2.2,0,0,1,0,.1v7.144a5.032,5.032,0,0,0,.218,1.526,2.918,2.918,0,0,0,.621,1.09,2.549,2.549,0,0,0,.973.654,3.571,3.571,0,0,0,1.291.218,3.739,3.739,0,0,0,1.308-.218,2.448,2.448,0,0,0,.973-.637,2.918,2.918,0,0,0,.6-1.073,4.8,4.8,0,0,0,.218-1.509v-7.194a.2.2,0,0,1,0-.1h1.023a.2.2,0,0,1,0,.1v7.194Z" transform="translate(56.609 20.908)"/>
    <path id="Path_22" data-name="Path 22" class="cls-6" d="M163.416,114.993a.186.186,0,0,1,0,.1h-1.023a.184.184,0,0,1,0-.1v-11.3a.169.169,0,0,1,0-.1h1.04a.2.2,0,0,1,0,.1v11.3Z" transform="translate(62.918 20.922)"/>
    <path id="Path_23" data-name="Path 23" class="cls-6" d="M173.015,114.678a1.172,1.172,0,0,1,0,.218.519.519,0,0,1,0,.151.252.252,0,0,1-.084.1h-5.165a.587.587,0,0,1-.335-.117.52.52,0,0,1-.168-.453V103.661a.2.2,0,0,1,0-.1h1.023a.2.2,0,0,1,0,.1v10.481h4.595l.084.084a.437.437,0,0,1,0,.151A1.22,1.22,0,0,1,173.015,114.678Z" transform="translate(66.215 20.901)"/>
    <path id="Path_24" data-name="Path 24" class="cls-6" d="M182.591,109.206a8.384,8.384,0,0,1-.369,2.583,4.931,4.931,0,0,1-1.09,1.878,4.6,4.6,0,0,1-1.778,1.14,7.379,7.379,0,0,1-2.532.386h-2.3a.587.587,0,0,1-.335-.117.52.52,0,0,1-.168-.453V104.091a.52.52,0,0,1,.168-.453.587.587,0,0,1,.335-.117h2.448a6.843,6.843,0,0,1,2.515.4,4.645,4.645,0,0,1,1.677,1.157,4.879,4.879,0,0,1,1.04,1.778A7.245,7.245,0,0,1,182.591,109.206Zm-1.191,0a6.607,6.607,0,0,0-.252-1.895,4.041,4.041,0,0,0-.788-1.509,3.673,3.673,0,0,0-1.358-.989,5.282,5.282,0,0,0-2.1-.352h-1.794v9.693h1.811a6.07,6.07,0,0,0,2.012-.285,3.354,3.354,0,0,0,1.375-.906,3.941,3.941,0,0,0,.822-1.543,7.915,7.915,0,0,0,.285-2.147Z" transform="translate(70.792 20.873)"/>
    <path id="Path_25" data-name="Path 25" class="cls-6" d="M189.157,114.729a1.111,1.111,0,0,1,0,.2.489.489,0,0,1,0,.151l-.1.1H183.4a.587.587,0,0,1-.335-.117.52.52,0,0,1-.168-.453V104.08a.52.52,0,0,1,.168-.453.587.587,0,0,1,.335-.117h5.5l.084.1a.588.588,0,0,1,0,.151,1.244,1.244,0,0,1,0,.218,1.116,1.116,0,0,1,0,.2.5.5,0,0,1,0,.151l-.084.084h-4.9v4.109h4.226l.084.084a.438.438,0,0,1,0,.151,1.121,1.121,0,0,1,0,.218.924.924,0,0,1,0,.2.371.371,0,0,1,0,.134h-4.343v4.645h4.981l.1.084a.438.438,0,0,1,0,.151A1.224,1.224,0,0,1,189.157,114.729Z" transform="translate(76.804 20.868)"/>
    <path id="Path_26" data-name="Path 26" class="cls-6" d="M197.713,115.051a.235.235,0,0,1,0,.1h-.973a.352.352,0,0,1-.117-.1.739.739,0,0,1,0-.184l-1.09-2.834q-.2-.478-.4-.906a2.919,2.919,0,0,0-.52-.738,2.213,2.213,0,0,0-.738-.486,2.683,2.683,0,0,0-1.04-.184h-1.207v5.249a.186.186,0,0,1,0,.1H190.6a.185.185,0,0,1,0-.1V104.05a.52.52,0,0,1,.168-.453.587.587,0,0,1,.335-.117h3.421a3.992,3.992,0,0,1,1.157.386,2.785,2.785,0,0,1,.822.637,2.549,2.549,0,0,1,.486.872,3.353,3.353,0,0,1,.151,1.04,3.07,3.07,0,0,1-.168,1.04,2.531,2.531,0,0,1-.453.8,3.019,3.019,0,0,1-.7.6,4.7,4.7,0,0,1-.906.419,2.347,2.347,0,0,1,.537.335,2.647,2.647,0,0,1,.436.486,4.392,4.392,0,0,1,.386.637c.117.252.235.52.352.822l1.09,2.717a1.154,1.154,0,0,0,.151.436A.738.738,0,0,1,197.713,115.051Zm-1.945-8.385a2.3,2.3,0,0,0-.335-1.275,1.878,1.878,0,0,0-1.124-.738l-.57-.1h-2.247v4.276h1.677a3.589,3.589,0,0,0,1.157-.168,2.331,2.331,0,0,0,.8-.453,1.677,1.677,0,0,0,.47-.671,2.315,2.315,0,0,0,.168-.838Z" transform="translate(82.015 20.847)"/>
    <path id="Path_27" data-name="Path 27" class="cls-6" d="M210.52,111.95a3.637,3.637,0,0,1-.117.956,3.085,3.085,0,0,1-.352.8,2.816,2.816,0,0,1-.553.637,3.354,3.354,0,0,1-.738.47,4.007,4.007,0,0,1-.889.285,5.434,5.434,0,0,1-1.107.1h-3.019a.587.587,0,0,1-.335-.117.52.52,0,0,1-.168-.453V104.1a.52.52,0,0,1,.168-.453.587.587,0,0,1,.335-.117h2.448a5.432,5.432,0,0,1,1.677.2,2.784,2.784,0,0,1,1.04.587,2.4,2.4,0,0,1,.62.922,3.472,3.472,0,0,1,.2,1.207,3.355,3.355,0,0,1-.1.788,2.7,2.7,0,0,1-.285.7,2.482,2.482,0,0,1-.47.587,2.631,2.631,0,0,1-.671.436,2.683,2.683,0,0,1,.889.335,2.816,2.816,0,0,1,.721.62,2.985,2.985,0,0,1,.486.872A3.235,3.235,0,0,1,210.52,111.95Zm-1.928-5.383a2.613,2.613,0,0,0-.134-.838,1.677,1.677,0,0,0-.4-.637,1.844,1.844,0,0,0-.721-.4,3.908,3.908,0,0,0-1.174-.151h-1.828v4.176h2a2.733,2.733,0,0,0,1.057-.168,1.862,1.862,0,0,0,.671-.47,1.961,1.961,0,0,0,.386-.688,2.665,2.665,0,0,0,.151-.838Zm.755,5.484a2.6,2.6,0,0,0-.184-1.023,1.9,1.9,0,0,0-.537-.738,2.4,2.4,0,0,0-.872-.453,4.645,4.645,0,0,0-1.291-.151h-2.1v4.545h2.549a3.168,3.168,0,0,0,.989-.134,2.28,2.28,0,0,0,.755-.419,1.979,1.979,0,0,0,.52-.688,2.2,2.2,0,0,0,.168-.956Z" transform="translate(90.573 20.88)"/>
    <path id="Path_28" data-name="Path 28" class="cls-6" d="M221.033,109.317a9.306,9.306,0,0,1-.319,2.532,5.382,5.382,0,0,1-.956,1.929A4.226,4.226,0,0,1,218.081,115a6.2,6.2,0,0,1-4.511,0,3.908,3.908,0,0,1-1.526-1.174,5.032,5.032,0,0,1-.889-1.861,9.913,9.913,0,0,1-.285-2.482,9.173,9.173,0,0,1,.319-2.482,5.234,5.234,0,0,1,.956-1.912,4.344,4.344,0,0,1,1.677-1.224,5.551,5.551,0,0,1,2.281-.436,5.467,5.467,0,0,1,2.2.4,3.991,3.991,0,0,1,1.543,1.157,5.031,5.031,0,0,1,.906,1.845,9.373,9.373,0,0,1,.285,2.482Zm-1.174.1a9.272,9.272,0,0,0-.2-1.945,4.51,4.51,0,0,0-.637-1.576,3.118,3.118,0,0,0-1.191-1.056,3.94,3.94,0,0,0-1.828-.386,3.79,3.79,0,0,0-1.828.4,3.353,3.353,0,0,0-1.207,1.073,4.528,4.528,0,0,0-.671,1.576,8.607,8.607,0,0,0-.2,1.895,10.061,10.061,0,0,0,.184,1.979,4.5,4.5,0,0,0,.62,1.593,3.052,3.052,0,0,0,1.174,1.056,3.992,3.992,0,0,0,1.845.386,3.807,3.807,0,0,0,1.845-.4,3.354,3.354,0,0,0,1.207-1.107,4.628,4.628,0,0,0,.654-1.677A8.87,8.87,0,0,0,219.859,109.417Z" transform="translate(95.74 20.813)"/>
    <path id="Path_29" data-name="Path 29" class="cls-6" d="M228.072,104.03a.985.985,0,0,1,0,.2.421.421,0,0,1,0,.151l-.084.084h-3.605v10.5a.185.185,0,0,1,0,.1h-1.14a.184.184,0,0,1,0-.1v-10.5h-3.605l-.084-.084a.421.421,0,0,1,0-.151.988.988,0,0,1,0-.2,1.129,1.129,0,0,1,0-.218.489.489,0,0,1,0-.151.252.252,0,0,1,.084-.1h8.3l.084.1a.489.489,0,0,1,0,.151A1.125,1.125,0,0,1,228.072,104.03Z" transform="translate(101.613 20.901)"/>
  </g>
</svg>
